{"accessors":[{"bufferView":0,"componentType":5126,"count":24,"max":[45.0,84.09091186523438,197.72727966308594],"min":[20.0,79.54545593261719,195.4545440673828],"type":"VEC3"},{"bufferView":1,"componentType":5126,"count":24,"type":"VEC3"},{"bufferView":2,"componentType":5125,"count":36,"type":"SCALAR"},{"bufferView":3,"componentType":5126,"count":24,"max":[45.0,88.63636016845703,195.4545440673828],"min":[20.0,84.09091186523438,193.18182373046875],"type":"VEC3"},{"bufferView":4,"componentType":5126,"count":24,"type":"VEC3"},{"bufferView":5,"componentType":5125,"count":36,"type":"SCALAR"},{"bufferView":6,"componentType":5126,"count":24,"max":[45.0,93.18181610107422,193.18182373046875],"min":[20.0,88.63636016845703,190.90908813476563],"type":"VEC3"},{"bufferView":7,"componentType":5126,"count":24,"type":"VEC3"},{"bufferView":8,"componentType":5125,"count":36,"type":"SCALAR"},{"bufferView":9,"componentType":5126,"count":24,"max":[45.0,97.7272720336914,190.90908813476563],"min":[20.0,93.18181610107422,188.63636779785156],"type":"VEC3"},{"bufferView":10,"componentType":5126,"count":24,"type":"VEC3"},{"bufferView":11,"componentType":5125,"count":36,"type":"SCALAR"},{"bufferView":12,"componentType":5126,"count":24,"max":[45.0,102.2727279663086,188.63636779785156],"min":[20.0,97.7272720336914,186.36363220214844],"type":"VEC3"},{"bufferView":13,"componentType":5126,"count":24,"type":"VEC3"},{"bufferView":14,"componentType":5125,"count":36,"type":"SCALAR"},{"bufferView":15,"componentType":5126,"count":24,"max":[45.0,106.81818389892578,186.36363220214844],"min":[20.0,102.2727279663086,184.09091186523438],"type":"VEC3"},{"bufferView":16,"componentType":5126,"count":24,"type":"VEC3"},{"bufferView":17,"componentType":5125,"count":36,"type":"SCALAR"},{"bufferView":18,"componentType":5126,"count":24,"max":[45.0,111.36363983154297,184.09091186523438],"min":[20.0,106.81818389892578,181.81817626953125],"type":"VEC3"},{"bufferView":19,"componentType":5126,"count":24,"type":"VEC3"},{"bufferView":20,"componentType":5125,"count":36,"type":"SCALAR"},{"bufferView":21,"componentType":5126,"count":24,"max":[45.0,115.90908813476563,181.81817626953125],"min":[20.0,111.36363983154297,179.5454559326172],"type":"VEC3"},{"bufferView":22,"componentType":5126,"count":24,"type":"VEC3"},{"bufferView":23,"componentType":5125,"count":36,"type":"SCALAR"},{"bufferView":24,"componentType":5126,"count":24,"max":[45.0,120.45454406738281,179.5454559326172],"min":[20.0,115.90908813476563,177.27272033691406],"type":"VEC3"},{"bufferView":25,"componentType":5126,"count":24,"type":"VEC3"},{"bufferView":26,"componentType":5125,"count":36,"type":"SCALAR"},{"bufferView":27,"componentType":5126,"count":24,"max":[45.0,125.0,177.27272033691406],"min":[20.0,120.45454406738281,175.0],"type":"VEC3"},{"bufferView":28,"componentType":5126,"count":24,"type":"VEC3"},{"bufferView":29,"componentType":5125,"count":36,"type":"SCALAR"},{"bufferView":30,"componentType":5126,"count":1188,"max":[120.0,200.0045166015625,175.0],"min":[20.0,100.0,147.7270050048828],"type":"VEC3"},{"bufferView":31,"componentType":5126,"count":1188,"type":"VEC3"},{"bufferView":32,"componentType":5125,"count":4020,"type":"SCALAR"},{"bufferView":33,"componentType":5126,"count":162,"max":[108.5,13.5,197.7270050048828],"min":[106.5,11.5,100.0],"type":"VEC3"},{"bufferView":34,"componentType":5126,"count":162,"type":"VEC3"},{"bufferView":35,"componentType":5125,"count":468,"type":"SCALAR"},{"bufferView":36,"componentType":5126,"count":294,"max":[120.0,100.0,150.0],"min":[95.0,4.107853990233286e-15,147.7270050048828],"type":"VEC3"},{"bufferView":37,"componentType":5126,"count":294,"type":"VEC3"},{"bufferView":38,"componentType":5125,"count":840,"type":"SCALAR"},{"bufferView":39,"componentType":5126,"count":2603,"max":[145.00779724121094,-25.0,200.0],"min":[94.99964141845703,-75.00041961669922,99.99842071533203],"type":"VEC3"},{"bufferView":40,"componentType":5126,"count":2603,"type":"VEC3"},{"bufferView":41,"componentType":5125,"count":8109,"type":"SCALAR"},{"bufferView":42,"componentType":5126,"count":3554,"max":[98.47482299804688,63.0,203.9753875732422],"min":[42.52531433105469,43.0,149.8770294189453],"type":"VEC3"},{"bufferView":43,"componentType":5126,"count":3554,"type":"VEC3"},{"bufferView":44,"componentType":5125,"count":14388,"type":"SCALAR"},{"bufferView":45,"componentType":5126,"count":72,"max":[170.0,50.0,100.0],"min":[95.0,-50.0,97.72699737548828],"type":"VEC3"},{"bufferView":46,"componentType":5126,"count":72,"type":"VEC3"},{"bufferView":47,"componentType":5125,"count":132,"type":"SCALAR"},{"bufferView":48,"componentType":5126,"count":24,"max":[161.5,12.5,110.0],"min":[151.5,2.5,100.0],"type":"VEC3"},{"bufferView":49,"componentType":5126,"count":24,"type":"VEC3"},{"bufferView":50,"componentType":5125,"count":36,"type":"SCALAR"},{"bufferView":51,"componentType":5126,"count":24,"max":[162.62371826171875,13.623723983764648,120.0],"min":[150.37628173828125,1.376275658607483,110.0],"type":"VEC3"},{"bufferView":52,"componentType":5126,"count":24,"type":"VEC3"},{"bufferView":53,"componentType":5125,"count":36,"type":"SCALAR"},{"bufferView":54,"componentType":5126,"count":24,"max":[161.5,-1.5,110.0],"min":[151.5,-11.5,100.0],"type":"VEC3"},{"bufferView":55,"componentType":5126,"count":24,"type":"VEC3"},{"bufferView":56,"componentType":5125,"count":36,"type":"SCALAR"},{"bufferView":57,"componentType":5126,"count":24,"max":[138.62371826171875,43.62372589111328,110.0],"min":[126.37627410888672,31.37627601623535,100.0],"type":"VEC3"},{"bufferView":58,"componentType":5126,"count":24,"type":"VEC3"},{"bufferView":59,"componentType":5125,"count":36,"type":"SCALAR"},{"bufferView":60,"componentType":5126,"count":6,"max":[137.71502685546875,27.06839370727539,103.5798568725586],"min":[137.71502685546875,26.398513793945313,102.81758117675781],"type":"VEC3"},{"bufferView":61,"componentType":5126,"count":6,"type":"VEC3"},{"bufferView":62,"componentType":5125,"count":12,"type":"SCALAR"},{"bufferView":63,"componentType":5126,"count":7,"max":[137.71502685546875,28.72692108154297,103.06705474853516],"min":[137.71502685546875,28.121719360351563,102.3324966430664],"type":"VEC3"},{"bufferView":64,"componentType":5126,"count":7,"type":"VEC3"},{"bufferView":65,"componentType":5125,"count":15,"type":"SCALAR"},{"bufferView":66,"componentType":5126,"count":20,"max":[137.71502685546875,30.325389862060547,106.1577377319336],"min":[137.71502685546875,27.036054611206055,103.28881072998047],"type":"VEC3"},{"bufferView":67,"componentType":5126,"count":20,"type":"VEC3"},{"bufferView":68,"componentType":5125,"count":54,"type":"SCALAR"},{"bufferView":69,"componentType":5126,"count":9,"max":[137.71502685546875,28.445110321044922,116.48310852050781],"min":[137.71502685546875,26.038166046142578,114.90312194824219],"type":"VEC3"},{"bufferView":70,"componentType":5126,"count":9,"type":"VEC3"},{"bufferView":71,"componentType":5125,"count":21,"type":"SCALAR"},{"bufferView":72,"componentType":5126,"count":30,"max":[137.71502685546875,34.113670349121094,123.85639190673828],"min":[137.71502685546875,29.807966232299805,118.40958404541016],"type":"VEC3"},{"bufferView":73,"componentType":5126,"count":30,"type":"VEC3"},{"bufferView":74,"componentType":5125,"count":84,"type":"SCALAR"},{"bufferView":75,"componentType":5126,"count":33,"max":[147.90945434570313,9.185795783996582,123.8666000366211],"min":[147.90945434570313,1.34590482711792,115.6063003540039],"type":"VEC3"},{"bufferView":76,"componentType":5126,"count":33,"type":"VEC3"},{"bufferView":77,"componentType":5125,"count":93,"type":"SCALAR"},{"bufferView":78,"componentType":5126,"count":30,"max":[147.90945434570313,13.985823631286621,128.7266845703125],"min":[147.90945434570313,8.631413459777832,123.69566345214844],"type":"VEC3"},{"bufferView":79,"componentType":5126,"count":30,"type":"VEC3"},{"bufferView":80,"componentType":5125,"count":84,"type":"SCALAR"},{"bufferView":81,"componentType":5126,"count":75,"max":[147.90945434570313,16.854751586914063,118.26734161376953],"min":[147.90945434570313,4.741497039794922,104.42163848876953],"type":"VEC3"},{"bufferView":82,"componentType":5126,"count":75,"type":"VEC3"},{"bufferView":83,"componentType":5125,"count":219,"type":"SCALAR"},{"bufferView":84,"componentType":5126,"count":23,"max":[130.4401397705078,-59.075748443603516,147.41941833496094],"min":[130.4401397705078,-61.14082336425781,139.265380859375],"type":"VEC3"},{"bufferView":85,"componentType":5126,"count":23,"type":"VEC3"},{"bufferView":86,"componentType":5125,"count":63,"type":"SCALAR"},{"bufferView":87,"componentType":5126,"count":30,"max":[130.4401397705078,-63.3768310546875,143.55259704589844],"min":[130.4401397705078,-70.84251403808594,137.70387268066406],"type":"VEC3"},{"bufferView":88,"componentType":5126,"count":30,"type":"VEC3"},{"bufferView":89,"componentType":5125,"count":84,"type":"SCALAR"},{"bufferView":90,"componentType":5126,"count":26,"max":[130.4401397705078,-62.73467254638672,131.81817626953125],"min":[130.4401397705078,-65.80225372314453,124.8144760131836],"type":"VEC3"},{"bufferView":91,"componentType":5126,"count":26,"type":"VEC3"},{"bufferView":92,"componentType":5125,"count":72,"type":"SCALAR"},{"bufferView":93,"componentType":5126,"count":10,"max":[130.4401397705078,-65.87155151367188,131.9706268310547],"min":[130.4401397705078,-68.20919799804688,130.20584106445313],"type":"VEC3"},{"bufferView":94,"componentType":5126,"count":10,"type":"VEC3"},{"bufferView":95,"componentType":5125,"count":24,"type":"SCALAR"},{"bufferView":96,"componentType":5126,"count":35,"max":[130.4401397705078,-62.73005294799805,149.8263702392578],"min":[130.4401397705078,-67.02189636230469,145.14183044433594],"type":"VEC3"},{"bufferView":97,"componentType":5126,"count":35,"type":"VEC3"},{"bufferView":98,"componentType":5125,"count":99,"type":"SCALAR"},{"bufferView":99,"componentType":5126,"count":55,"max":[111.93637084960938,148.93882751464844,169.5017852783203],"min":[111.93637084960938,144.2975311279297,164.51747131347656],"type":"VEC3"},{"bufferView":100,"componentType":5126,"count":55,"type":"VEC3"},{"bufferView":101,"componentType":5125,"count":159,"type":"SCALAR"},{"bufferView":102,"componentType":5126,"count":14,"max":[111.93637084960938,138.14051818847656,152.82733154296875],"min":[111.93637084960938,136.45855712890625,151.36962890625],"type":"VEC3"},{"bufferView":103,"componentType":5126,"count":14,"type":"VEC3"},{"bufferView":104,"componentType":5125,"count":36,"type":"SCALAR"},{"bufferView":105,"componentType":5126,"count":24,"max":[111.93637084960938,142.7755889892578,159.14662170410156],"min":[111.93637084960938,140.5547637939453,156.56979370117188],"type":"VEC3"},{"bufferView":106,"componentType":5126,"count":24,"type":"VEC3"},{"bufferView":107,"componentType":5125,"count":66,"type":"SCALAR"},{"bufferView":108,"componentType":5126,"count":32,"max":[105.6449966430664,59.87967300415039,162.5770721435547],"min":[105.6449966430664,53.78176498413086,150.99403381347656],"type":"VEC3"},{"bufferView":109,"componentType":5126,"count":32,"type":"VEC3"},{"bufferView":110,"componentType":5125,"count":90,"type":"SCALAR"},{"bufferView":111,"componentType":5126,"count":24,"max":[105.6449966430664,51.30218505859375,161.59706115722656],"min":[105.6449966430664,44.05729293823242,151.6744842529297],"type":"VEC3"},{"bufferView":112,"componentType":5126,"count":24,"type":"VEC3"},{"bufferView":113,"componentType":5125,"count":66,"type":"SCALAR"},{"bufferView":114,"componentType":5126,"count":27,"max":[105.6449966430664,55.20749282836914,178.26368713378906],"min":[105.6449966430664,51.58600997924805,172.41256713867188],"type":"VEC3"},{"bufferView":115,"componentType":5126,"count":27,"type":"VEC3"},{"bufferView":116,"componentType":5125,"count":75,"type":"SCALAR"},{"bufferView":117,"componentType":5126,"count":40,"max":[105.6449966430664,62.13774108886719,182.21630859375],"min":[105.6449966430664,54.59225082397461,169.63766479492188],"type":"VEC3"},{"bufferView":118,"componentType":5126,"count":40,"type":"VEC3"},{"bufferView":119,"componentType":5125,"count":114,"type":"SCALAR"},{"bufferView":120,"componentType":5126,"count":44,"max":[105.6449966430664,54.1625862121582,185.1755828857422],"min":[105.6449966430664,48.5926513671875,170.99493408203125],"type":"VEC3"},{"bufferView":121,"componentType":5126,"count":44,"type":"VEC3"},{"bufferView":122,"componentType":5125,"count":126,"type":"SCALAR"},{"bufferView":123,"componentType":5126,"count":24,"max":[112.70492553710938,-32.32856750488281,219.59481811523438],"min":[112.70492553710938,-34.01567459106445,214.4746551513672],"type":"VEC3"},{"bufferView":124,"componentType":5126,"count":24,"type":"VEC3"},{"bufferView":125,"componentType":5125,"count":66,"type":"SCALAR"},{"bufferView":126,"componentType":5126,"count":30,"max":[112.70492553710938,-37.723384857177734,215.20050048828125],"min":[112.70492553710938,-40.5875358581543,209.76644897460938],"type":"VEC3"},{"bufferView":127,"componentType":5126,"count":30,"type":"VEC3"},{"bufferView":128,"componentType":5125,"count":84,"type":"SCALAR"},{"bufferView":129,"componentType":5126,"count":40,"max":[112.70492553710938,-35.23196029663086,230.40406799316406],"min":[112.70492553710938,-38.86119842529297,224.5972900390625],"type":"VEC3"},{"bufferView":130,"componentType":5126,"count":40,"type":"VEC3"},{"bufferView":131,"componentType":5125,"count":114,"type":"SCALAR"},{"bufferView":132,"componentType":5126,"count":18,"max":[112.70492553710938,-36.52671432495117,202.11561584472656],"min":[112.70492553710938,-38.606170654296875,199.7615203857422],"type":"VEC3"},{"bufferView":133,"componentType":5126,"count":18,"type":"VEC3"},{"bufferView":134,"componentType":5125,"count":48,"type":"SCALAR"},{"bufferView":135,"componentType":5126,"count":48,"max":[120.0,79.54545593261719,200.00027465820313],"min":[20.0,-50.0,197.7270050048828],"type":"VEC3"},{"bufferView":136,"componentType":5126,"count":48,"type":"VEC3"},{"bufferView":137,"componentType":5125,"count":84,"type":"SCALAR"},{"bufferView":138,"componentType":5126,"count":21,"max":[137.71502685546875,34.30308532714844,120.10507202148438],"min":[137.71502685546875,31.00450897216797,116.77877807617188],"type":"VEC3"},{"bufferView":139,"componentType":5126,"count":21,"type":"VEC3"},{"bufferView":140,"componentType":5125,"count":57,"type":"SCALAR"},{"bufferView":141,"componentType":5126,"count":31,"max":[137.71502685546875,34.7512092590332,118.93624877929688],"min":[137.71502685546875,28.297273635864258,114.2239990234375],"type":"VEC3"},{"bufferView":142,"componentType":5126,"count":31,"type":"VEC3"},{"bufferView":143,"componentType":5125,"count":87,"type":"SCALAR"},{"bufferView":144,"componentType":5126,"count":47,"max":[137.71502685546875,38.35469436645508,118.01689910888672],"min":[137.71502685546875,27.077632904052734,103.21488952636719],"type":"VEC3"},{"bufferView":145,"componentType":5126,"count":47,"type":"VEC3"},{"bufferView":146,"componentType":5125,"count":135,"type":"SCALAR"},{"bufferView":147,"componentType":5126,"count":50,"max":[147.90945434570313,18.051294326782227,126.93880462646484],"min":[147.90945434570313,7.735161781311035,116.41015625],"type":"VEC3"},{"bufferView":148,"componentType":5126,"count":50,"type":"VEC3"},{"bufferView":149,"componentType":5125,"count":144,"type":"SCALAR"},{"bufferView":150,"componentType":5126,"count":78,"max":[130.4401397705078,-59.70866775512695,148.856201171875],"min":[130.4401397705078,-70.6946792602539,136.2393798828125],"type":"VEC3"},{"bufferView":151,"componentType":5126,"count":78,"type":"VEC3"},{"bufferView":152,"componentType":5125,"count":228,"type":"SCALAR"},{"bufferView":153,"componentType":5126,"count":76,"max":[111.93637084960938,152.0454864501953,165.222412109375],"min":[111.93637084960938,141.07369995117188,151.76986694335938],"type":"VEC3"},{"bufferView":154,"componentType":5126,"count":76,"type":"VEC3"},{"bufferView":155,"componentType":5125,"count":222,"type":"SCALAR"},{"bufferView":156,"componentType":5126,"count":41,"max":[105.6449966430664,56.39295959472656,174.29473876953125],"min":[105.6449966430664,47.56281280517578,161.93470764160156],"type":"VEC3"},{"bufferView":157,"componentType":5126,"count":41,"type":"VEC3"},{"bufferView":158,"componentType":5125,"count":117,"type":"SCALAR"},{"bufferView":159,"componentType":5126,"count":208,"max":[112.70492553710938,-32.76015090942383,217.73114013671875],"min":[112.70492553710938,-40.783714294433594,201.3309326171875],"type":"VEC3"},{"bufferView":160,"componentType":5126,"count":208,"type":"VEC3"},{"bufferView":161,"componentType":5125,"count":624,"type":"SCALAR"},{"bufferView":162,"componentType":5126,"count":29,"max":[147.90945434570313,13.440680503845215,119.93048858642578],"min":[147.90945434570313,6.2845282554626465,113.87847900390625],"type":"VEC3"},{"bufferView":163,"componentType":5126,"count":29,"type":"VEC3"},{"bufferView":164,"componentType":5125,"count":81,"type":"SCALAR"},{"bufferView":165,"componentType":5126,"count":18,"max":[147.90945434570313,17.45995330810547,116.93219757080078],"min":[147.90945434570313,11.588119506835938,111.20820617675781],"type":"VEC3"},{"bufferView":166,"componentType":5126,"count":18,"type":"VEC3"},{"bufferView":167,"componentType":5125,"count":48,"type":"SCALAR"},{"bufferView":168,"componentType":5126,"count":35,"max":[130.4401397705078,-60.618778228759766,138.0549774169922],"min":[130.4401397705078,-69.08235168457031,131.06051635742188],"type":"VEC3"},{"bufferView":169,"componentType":5126,"count":35,"type":"VEC3"},{"bufferView":170,"componentType":5125,"count":99,"type":"SCALAR"},{"bufferView":171,"componentType":5126,"count":78,"max":[111.93637084960938,151.36807250976563,157.32261657714844],"min":[111.93637084960938,135.77711486816406,150.55331420898438],"type":"VEC3"},{"bufferView":172,"componentType":5126,"count":78,"type":"VEC3"},{"bufferView":173,"componentType":5125,"count":228,"type":"SCALAR"},{"bufferView":174,"componentType":5126,"count":27,"max":[105.6449966430664,56.87255096435547,164.09237670898438],"min":[105.6449966430664,47.435604095458984,159.65579223632813],"type":"VEC3"},{"bufferView":175,"componentType":5126,"count":27,"type":"VEC3"},{"bufferView":176,"componentType":5125,"count":75,"type":"SCALAR"},{"bufferView":177,"componentType":5126,"count":163,"max":[112.70492553710938,-33.721412658691406,227.2652587890625],"min":[112.70492553710938,-42.0,214.80813598632813],"type":"VEC3"},{"bufferView":178,"componentType":5126,"count":163,"type":"VEC3"},{"bufferView":179,"componentType":5125,"count":483,"type":"SCALAR"},{"bufferView":180,"componentType":5126,"count":26,"max":[137.71502685546875,30.256092071533203,104.94271087646484],"min":[137.71502685546875,26.583309173583984,102.28167724609375],"type":"VEC3"},{"bufferView":181,"componentType":5126,"count":26,"type":"VEC3"},{"bufferView":182,"componentType":5125,"count":72,"type":"SCALAR"},{"bufferView":183,"componentType":5126,"count":21,"max":[147.90945434570313,15.829144477844238,105.40567016601563],"min":[147.90945434570313,12.56752872467041,100.16675567626953],"type":"VEC3"},{"bufferView":184,"componentType":5126,"count":21,"type":"VEC3"},{"bufferView":185,"componentType":5125,"count":57,"type":"SCALAR"},{"bufferView":186,"componentType":5126,"count":15,"max":[147.90945434570313,10.950579643249512,109.32330322265625],"min":[147.90945434570313,5.355937480926514,106.81010437011719],"type":"VEC3"},{"bufferView":187,"componentType":5126,"count":15,"type":"VEC3"},{"bufferView":188,"componentType":5125,"count":39,"type":"SCALAR"},{"bufferView":189,"componentType":5126,"count":21,"max":[130.4401397705078,-63.53390884399414,125.72920989990234],"min":[130.4401397705078,-66.0193862915039,120.94766235351563],"type":"VEC3"},{"bufferView":190,"componentType":5126,"count":21,"type":"VEC3"},{"bufferView":191,"componentType":5125,"count":57,"type":"SCALAR"},{"bufferView":192,"componentType":5126,"count":46,"max":[111.93637084960938,138.83132934570313,156.19541931152344],"min":[111.93637084960938,133.0,150.0502471923828],"type":"VEC3"},{"bufferView":193,"componentType":5126,"count":46,"type":"VEC3"},{"bufferView":194,"componentType":5125,"count":132,"type":"SCALAR"},{"bufferView":195,"componentType":5126,"count":17,"max":[105.6449966430664,47.831573486328125,152.8685302734375],"min":[105.6449966430664,43.426727294921875,150.1293182373047],"type":"VEC3"},{"bufferView":196,"componentType":5126,"count":17,"type":"VEC3"},{"bufferView":197,"componentType":5125,"count":45,"type":"SCALAR"},{"bufferView":198,"componentType":5126,"count":26,"max":[105.6449966430664,61.92914581298828,152.9949951171875],"min":[105.6449966430664,57.45174026489258,149.53359985351563],"type":"VEC3"},{"bufferView":199,"componentType":5126,"count":26,"type":"VEC3"},{"bufferView":200,"componentType":5125,"count":72,"type":"SCALAR"},{"bufferView":201,"componentType":5126,"count":32,"max":[137.71502685546875,36.6638298034668,125.08989715576172],"min":[137.71502685546875,30.196033477783203,115.30042266845703],"type":"VEC3"},{"bufferView":202,"componentType":5126,"count":32,"type":"VEC3"},{"bufferView":203,"componentType":5125,"count":90,"type":"SCALAR"},{"bufferView":204,"componentType":5126,"count":22,"max":[147.90945434570313,13.865707397460938,130.28819274902344],"min":[147.90945434570313,9.07953929901123,126.19500732421875],"type":"VEC3"},{"bufferView":205,"componentType":5126,"count":22,"type":"VEC3"},{"bufferView":206,"componentType":5125,"count":60,"type":"SCALAR"},{"bufferView":207,"componentType":5126,"count":25,"max":[130.4401397705078,-62.62379455566406,151.95611572265625],"min":[130.4401397705078,-66.5183334350586,148.25099182128906],"type":"VEC3"},{"bufferView":208,"componentType":5126,"count":25,"type":"VEC3"},{"bufferView":209,"componentType":5125,"count":69,"type":"SCALAR"},{"bufferView":210,"componentType":5126,"count":36,"max":[111.93637084960938,149.52769470214844,170.37811279296875],"min":[111.93637084960938,145.41943359375,165.52906799316406],"type":"VEC3"},{"bufferView":211,"componentType":5126,"count":36,"type":"VEC3"},{"bufferView":212,"componentType":5125,"count":102,"type":"SCALAR"},{"bufferView":213,"componentType":5126,"count":30,"max":[105.6449966430664,54.815093994140625,178.72409057617188],"min":[105.6449966430664,50.39763641357422,174.05210876464844],"type":"VEC3"},{"bufferView":214,"componentType":5126,"count":30,"type":"VEC3"},{"bufferView":215,"componentType":5125,"count":84,"type":"SCALAR"},{"bufferView":216,"componentType":5126,"count":39,"max":[112.70492553710938,-35.1731071472168,231.9930877685547],"min":[112.70492553710938,-41.29376983642578,224.87193298339844],"type":"VEC3"},{"bufferView":217,"componentType":5126,"count":39,"type":"VEC3"},{"bufferView":218,"componentType":5125,"count":111,"type":"SCALAR"},{"bufferView":219,"componentType":5126,"count":40,"max":[112.70492553710938,-33.858734130859375,201.4290008544922],"min":[112.70492553710938,-40.46983337402344,195.9949493408203],"type":"VEC3"},{"bufferView":220,"componentType":5126,"count":40,"type":"VEC3"},{"bufferView":221,"componentType":5125,"count":114,"type":"SCALAR"},{"bufferView":222,"componentType":5126,"count":4,"max":[109.68499755859375,15.186400413513184,169.1002655029297],"min":[109.68499755859375,14.708616256713867,168.223388671875],"type":"VEC3"},{"bufferView":223,"componentType":5126,"count":4,"type":"VEC3"},{"bufferView":224,"componentType":5125,"count":6,"type":"SCALAR"},{"bufferView":225,"componentType":5126,"count":8,"max":[109.68499755859375,11.532753944396973,148.9939727783203],"min":[109.68499755859375,9.408018112182617,147.2964324951172],"type":"VEC3"},{"bufferView":226,"componentType":5126,"count":8,"type":"VEC3"},{"bufferView":227,"componentType":5125,"count":18,"type":"SCALAR"},{"bufferView":228,"componentType":5126,"count":19,"max":[109.68499755859375,19.756269454956055,148.77474975585938],"min":[109.68499755859375,15.714774131774902,142.52420043945313],"type":"VEC3"},{"bufferView":229,"componentType":5126,"count":19,"type":"VEC3"},{"bufferView":230,"componentType":5125,"count":51,"type":"SCALAR"},{"bufferView":231,"componentType":5126,"count":8,"max":[109.68499755859375,8.171399116516113,159.39842224121094],"min":[109.68499755859375,7.052820682525635,155.93026733398438],"type":"VEC3"},{"bufferView":232,"componentType":5126,"count":8,"type":"VEC3"},{"bufferView":233,"componentType":5125,"count":18,"type":"SCALAR"},{"bufferView":234,"componentType":5126,"count":4,"max":[109.68499755859375,11.060589790344238,169.0890350341797],"min":[109.68499755859375,10.594047546386719,168.1053466796875],"type":"VEC3"},{"bufferView":235,"componentType":5126,"count":4,"type":"VEC3"},{"bufferView":236,"componentType":5125,"count":6,"type":"SCALAR"},{"bufferView":237,"componentType":5126,"count":12,"max":[109.68499755859375,14.579333305358887,167.75685119628906],"min":[109.68499755859375,11.049348831176758,165.94688415527344],"type":"VEC3"},{"bufferView":238,"componentType":5126,"count":12,"type":"VEC3"},{"bufferView":239,"componentType":5125,"count":30,"type":"SCALAR"},{"bufferView":240,"componentType":5126,"count":4,"max":[109.68499755859375,7.9634222984313965,156.9757843017578],"min":[109.68499755859375,6.906674385070801,154.39012145996094],"type":"VEC3"},{"bufferView":241,"componentType":5126,"count":4,"type":"VEC3"},{"bufferView":242,"componentType":5125,"count":6,"type":"SCALAR"},{"bufferView":243,"componentType":5126,"count":20,"max":[109.68499755859375,18.901878356933594,151.5009307861328],"min":[109.68499755859375,12.049885749816895,145.8743133544922],"type":"VEC3"},{"bufferView":244,"componentType":5126,"count":20,"type":"VEC3"},{"bufferView":245,"componentType":5125,"count":54,"type":"SCALAR"},{"bufferView":246,"componentType":5126,"count":46,"max":[109.68499755859375,18.851289749145508,166.32911682128906],"min":[109.68499755859375,6.6537299156188965,148.19578552246094],"type":"VEC3"},{"bufferView":247,"componentType":5126,"count":46,"type":"VEC3"},{"bufferView":248,"componentType":5125,"count":132,"type":"SCALAR"},{"bufferView":249,"componentType":5126,"count":16,"max":[109.68499755859375,12.027400970458984,148.10585021972656],"min":[109.68499755859375,9.26749324798584,144.13743591308594],"type":"VEC3"},{"bufferView":250,"componentType":5126,"count":16,"type":"VEC3"},{"bufferView":251,"componentType":5125,"count":42,"type":"SCALAR"},{"bufferView":252,"componentType":5126,"count":20,"max":[109.68499755859375,17.850753784179688,143.693359375],"min":[109.68499755859375,14.489398002624512,137.70700073242188],"type":"VEC3"},{"bufferView":253,"componentType":5126,"count":20,"type":"VEC3"},{"bufferView":254,"componentType":5125,"count":54,"type":"SCALAR"},{"bufferView":255,"componentType":5126,"count":22,"max":[109.68499755859375,15.023391723632813,172.29299926757813],"min":[109.68499755859375,10.802024841308594,166.64389038085938],"type":"VEC3"},{"bufferView":256,"componentType":5126,"count":22,"type":"VEC3"},{"bufferView":257,"componentType":5125,"count":57,"type":"SCALAR"}],"asset":{"generator":"Luxion KeyShot","version":"2.0"},"bufferViews":[{"buffer":0,"byteLength":288,"byteOffset":0,"byteStride":12},{"buffer":0,"byteLength":288,"byteOffset":288,"byteStride":12},{"buffer":0,"byteLength":144,"byteOffset":576},{"buffer":0,"byteLength":288,"byteOffset":720,"byteStride":12},{"buffer":0,"byteLength":288,"byteOffset":1008,"byteStride":12},{"buffer":0,"byteLength":144,"byteOffset":1296},{"buffer":0,"byteLength":288,"byteOffset":1440,"byteStride":12},{"buffer":0,"byteLength":288,"byteOffset":1728,"byteStride":12},{"buffer":0,"byteLength":144,"byteOffset":2016},{"buffer":0,"byteLength":288,"byteOffset":2160,"byteStride":12},{"buffer":0,"byteLength":288,"byteOffset":2448,"byteStride":12},{"buffer":0,"byteLength":144,"byteOffset":2736},{"buffer":0,"byteLength":288,"byteOffset":2880,"byteStride":12},{"buffer":0,"byteLength":288,"byteOffset":3168,"byteStride":12},{"buffer":0,"byteLength":144,"byteOffset":3456},{"buffer":0,"byteLength":288,"byteOffset":3600,"byteStride":12},{"buffer":0,"byteLength":288,"byteOffset":3888,"byteStride":12},{"buffer":0,"byteLength":144,"byteOffset":4176},{"buffer":0,"byteLength":288,"byteOffset":4320,"byteStride":12},{"buffer":0,"byteLength":288,"byteOffset":4608,"byteStride":12},{"buffer":0,"byteLength":144,"byteOffset":4896},{"buffer":0,"byteLength":288,"byteOffset":5040,"byteStride":12},{"buffer":0,"byteLength":288,"byteOffset":5328,"byteStride":12},{"buffer":0,"byteLength":144,"byteOffset":5616},{"buffer":0,"byteLength":288,"byteOffset":5760,"byteStride":12},{"buffer":0,"byteLength":288,"byteOffset":6048,"byteStride":12},{"buffer":0,"byteLength":144,"byteOffset":6336},{"buffer":0,"byteLength":288,"byteOffset":6480,"byteStride":12},{"buffer":0,"byteLength":288,"byteOffset":6768,"byteStride":12},{"buffer":0,"byteLength":144,"byteOffset":7056},{"buffer":0,"byteLength":14256,"byteOffset":7200,"byteStride":12},{"buffer":0,"byteLength":14256,"byteOffset":21456,"byteStride":12},{"buffer":0,"byteLength":16080,"byteOffset":35712},{"buffer":0,"byteLength":1944,"byteOffset":51792,"byteStride":12},{"buffer":0,"byteLength":1944,"byteOffset":53736,"byteStride":12},{"buffer":0,"byteLength":1872,"byteOffset":55680},{"buffer":0,"byteLength":3528,"byteOffset":57552,"byteStride":12},{"buffer":0,"byteLength":3528,"byteOffset":61080,"byteStride":12},{"buffer":0,"byteLength":3360,"byteOffset":64608},{"buffer":0,"byteLength":31236,"byteOffset":67968,"byteStride":12},{"buffer":0,"byteLength":31236,"byteOffset":99204,"byteStride":12},{"buffer":0,"byteLength":32436,"byteOffset":130440},{"buffer":0,"byteLength":42648,"byteOffset":162876,"byteStride":12},{"buffer":0,"byteLength":42648,"byteOffset":205524,"byteStride":12},{"buffer":0,"byteLength":57552,"byteOffset":248172},{"buffer":0,"byteLength":864,"byteOffset":305724,"byteStride":12},{"buffer":0,"byteLength":864,"byteOffset":306588,"byteStride":12},{"buffer":0,"byteLength":528,"byteOffset":307452},{"buffer":0,"byteLength":288,"byteOffset":307980,"byteStride":12},{"buffer":0,"byteLength":288,"byteOffset":308268,"byteStride":12},{"buffer":0,"byteLength":144,"byteOffset":308556},{"buffer":0,"byteLength":288,"byteOffset":308700,"byteStride":12},{"buffer":0,"byteLength":288,"byteOffset":308988,"byteStride":12},{"buffer":0,"byteLength":144,"byteOffset":309276},{"buffer":0,"byteLength":288,"byteOffset":309420,"byteStride":12},{"buffer":0,"byteLength":288,"byteOffset":309708,"byteStride":12},{"buffer":0,"byteLength":144,"byteOffset":309996},{"buffer":0,"byteLength":288,"byteOffset":310140,"byteStride":12},{"buffer":0,"byteLength":288,"byteOffset":310428,"byteStride":12},{"buffer":0,"byteLength":144,"byteOffset":310716},{"buffer":0,"byteLength":72,"byteOffset":310860,"byteStride":12},{"buffer":0,"byteLength":72,"byteOffset":310932,"byteStride":12},{"buffer":0,"byteLength":48,"byteOffset":311004},{"buffer":0,"byteLength":84,"byteOffset":311052,"byteStride":12},{"buffer":0,"byteLength":84,"byteOffset":311136,"byteStride":12},{"buffer":0,"byteLength":60,"byteOffset":311220},{"buffer":0,"byteLength":240,"byteOffset":311280,"byteStride":12},{"buffer":0,"byteLength":240,"byteOffset":311520,"byteStride":12},{"buffer":0,"byteLength":216,"byteOffset":311760},{"buffer":0,"byteLength":108,"byteOffset":311976,"byteStride":12},{"buffer":0,"byteLength":108,"byteOffset":312084,"byteStride":12},{"buffer":0,"byteLength":84,"byteOffset":312192},{"buffer":0,"byteLength":360,"byteOffset":312276,"byteStride":12},{"buffer":0,"byteLength":360,"byteOffset":312636,"byteStride":12},{"buffer":0,"byteLength":336,"byteOffset":312996},{"buffer":0,"byteLength":396,"byteOffset":313332,"byteStride":12},{"buffer":0,"byteLength":396,"byteOffset":313728,"byteStride":12},{"buffer":0,"byteLength":372,"byteOffset":314124},{"buffer":0,"byteLength":360,"byteOffset":314496,"byteStride":12},{"buffer":0,"byteLength":360,"byteOffset":314856,"byteStride":12},{"buffer":0,"byteLength":336,"byteOffset":315216},{"buffer":0,"byteLength":900,"byteOffset":315552,"byteStride":12},{"buffer":0,"byteLength":900,"byteOffset":316452,"byteStride":12},{"buffer":0,"byteLength":876,"byteOffset":317352},{"buffer":0,"byteLength":276,"byteOffset":318228,"byteStride":12},{"buffer":0,"byteLength":276,"byteOffset":318504,"byteStride":12},{"buffer":0,"byteLength":252,"byteOffset":318780},{"buffer":0,"byteLength":360,"byteOffset":319032,"byteStride":12},{"buffer":0,"byteLength":360,"byteOffset":319392,"byteStride":12},{"buffer":0,"byteLength":336,"byteOffset":319752},{"buffer":0,"byteLength":312,"byteOffset":320088,"byteStride":12},{"buffer":0,"byteLength":312,"byteOffset":320400,"byteStride":12},{"buffer":0,"byteLength":288,"byteOffset":320712},{"buffer":0,"byteLength":120,"byteOffset":321000,"byteStride":12},{"buffer":0,"byteLength":120,"byteOffset":321120,"byteStride":12},{"buffer":0,"byteLength":96,"byteOffset":321240},{"buffer":0,"byteLength":420,"byteOffset":321336,"byteStride":12},{"buffer":0,"byteLength":420,"byteOffset":321756,"byteStride":12},{"buffer":0,"byteLength":396,"byteOffset":322176},{"buffer":0,"byteLength":660,"byteOffset":322572,"byteStride":12},{"buffer":0,"byteLength":660,"byteOffset":323232,"byteStride":12},{"buffer":0,"byteLength":636,"byteOffset":323892},{"buffer":0,"byteLength":168,"byteOffset":324528,"byteStride":12},{"buffer":0,"byteLength":168,"byteOffset":324696,"byteStride":12},{"buffer":0,"byteLength":144,"byteOffset":324864},{"buffer":0,"byteLength":288,"byteOffset":325008,"byteStride":12},{"buffer":0,"byteLength":288,"byteOffset":325296,"byteStride":12},{"buffer":0,"byteLength":264,"byteOffset":325584},{"buffer":0,"byteLength":384,"byteOffset":325848,"byteStride":12},{"buffer":0,"byteLength":384,"byteOffset":326232,"byteStride":12},{"buffer":0,"byteLength":360,"byteOffset":326616},{"buffer":0,"byteLength":288,"byteOffset":326976,"byteStride":12},{"buffer":0,"byteLength":288,"byteOffset":327264,"byteStride":12},{"buffer":0,"byteLength":264,"byteOffset":327552},{"buffer":0,"byteLength":324,"byteOffset":327816,"byteStride":12},{"buffer":0,"byteLength":324,"byteOffset":328140,"byteStride":12},{"buffer":0,"byteLength":300,"byteOffset":328464},{"buffer":0,"byteLength":480,"byteOffset":328764,"byteStride":12},{"buffer":0,"byteLength":480,"byteOffset":329244,"byteStride":12},{"buffer":0,"byteLength":456,"byteOffset":329724},{"buffer":0,"byteLength":528,"byteOffset":330180,"byteStride":12},{"buffer":0,"byteLength":528,"byteOffset":330708,"byteStride":12},{"buffer":0,"byteLength":504,"byteOffset":331236},{"buffer":0,"byteLength":288,"byteOffset":331740,"byteStride":12},{"buffer":0,"byteLength":288,"byteOffset":332028,"byteStride":12},{"buffer":0,"byteLength":264,"byteOffset":332316},{"buffer":0,"byteLength":360,"byteOffset":332580,"byteStride":12},{"buffer":0,"byteLength":360,"byteOffset":332940,"byteStride":12},{"buffer":0,"byteLength":336,"byteOffset":333300},{"buffer":0,"byteLength":480,"byteOffset":333636,"byteStride":12},{"buffer":0,"byteLength":480,"byteOffset":334116,"byteStride":12},{"buffer":0,"byteLength":456,"byteOffset":334596},{"buffer":0,"byteLength":216,"byteOffset":335052,"byteStride":12},{"buffer":0,"byteLength":216,"byteOffset":335268,"byteStride":12},{"buffer":0,"byteLength":192,"byteOffset":335484},{"buffer":0,"byteLength":576,"byteOffset":335676,"byteStride":12},{"buffer":0,"byteLength":576,"byteOffset":336252,"byteStride":12},{"buffer":0,"byteLength":336,"byteOffset":336828},{"buffer":0,"byteLength":252,"byteOffset":337164,"byteStride":12},{"buffer":0,"byteLength":252,"byteOffset":337416,"byteStride":12},{"buffer":0,"byteLength":228,"byteOffset":337668},{"buffer":0,"byteLength":372,"byteOffset":337896,"byteStride":12},{"buffer":0,"byteLength":372,"byteOffset":338268,"byteStride":12},{"buffer":0,"byteLength":348,"byteOffset":338640},{"buffer":0,"byteLength":564,"byteOffset":338988,"byteStride":12},{"buffer":0,"byteLength":564,"byteOffset":339552,"byteStride":12},{"buffer":0,"byteLength":540,"byteOffset":340116},{"buffer":0,"byteLength":600,"byteOffset":340656,"byteStride":12},{"buffer":0,"byteLength":600,"byteOffset":341256,"byteStride":12},{"buffer":0,"byteLength":576,"byteOffset":341856},{"buffer":0,"byteLength":936,"byteOffset":342432,"byteStride":12},{"buffer":0,"byteLength":936,"byteOffset":343368,"byteStride":12},{"buffer":0,"byteLength":912,"byteOffset":344304},{"buffer":0,"byteLength":912,"byteOffset":345216,"byteStride":12},{"buffer":0,"byteLength":912,"byteOffset":346128,"byteStride":12},{"buffer":0,"byteLength":888,"byteOffset":347040},{"buffer":0,"byteLength":492,"byteOffset":347928,"byteStride":12},{"buffer":0,"byteLength":492,"byteOffset":348420,"byteStride":12},{"buffer":0,"byteLength":468,"byteOffset":348912},{"buffer":0,"byteLength":2496,"byteOffset":349380,"byteStride":12},{"buffer":0,"byteLength":2496,"byteOffset":351876,"byteStride":12},{"buffer":0,"byteLength":2496,"byteOffset":354372},{"buffer":0,"byteLength":348,"byteOffset":356868,"byteStride":12},{"buffer":0,"byteLength":348,"byteOffset":357216,"byteStride":12},{"buffer":0,"byteLength":324,"byteOffset":357564},{"buffer":0,"byteLength":216,"byteOffset":357888,"byteStride":12},{"buffer":0,"byteLength":216,"byteOffset":358104,"byteStride":12},{"buffer":0,"byteLength":192,"byteOffset":358320},{"buffer":0,"byteLength":420,"byteOffset":358512,"byteStride":12},{"buffer":0,"byteLength":420,"byteOffset":358932,"byteStride":12},{"buffer":0,"byteLength":396,"byteOffset":359352},{"buffer":0,"byteLength":936,"byteOffset":359748,"byteStride":12},{"buffer":0,"byteLength":936,"byteOffset":360684,"byteStride":12},{"buffer":0,"byteLength":912,"byteOffset":361620},{"buffer":0,"byteLength":324,"byteOffset":362532,"byteStride":12},{"buffer":0,"byteLength":324,"byteOffset":362856,"byteStride":12},{"buffer":0,"byteLength":300,"byteOffset":363180},{"buffer":0,"byteLength":1956,"byteOffset":363480,"byteStride":12},{"buffer":0,"byteLength":1956,"byteOffset":365436,"byteStride":12},{"buffer":0,"byteLength":1932,"byteOffset":367392},{"buffer":0,"byteLength":312,"byteOffset":369324,"byteStride":12},{"buffer":0,"byteLength":312,"byteOffset":369636,"byteStride":12},{"buffer":0,"byteLength":288,"byteOffset":369948},{"buffer":0,"byteLength":252,"byteOffset":370236,"byteStride":12},{"buffer":0,"byteLength":252,"byteOffset":370488,"byteStride":12},{"buffer":0,"byteLength":228,"byteOffset":370740},{"buffer":0,"byteLength":180,"byteOffset":370968,"byteStride":12},{"buffer":0,"byteLength":180,"byteOffset":371148,"byteStride":12},{"buffer":0,"byteLength":156,"byteOffset":371328},{"buffer":0,"byteLength":252,"byteOffset":371484,"byteStride":12},{"buffer":0,"byteLength":252,"byteOffset":371736,"byteStride":12},{"buffer":0,"byteLength":228,"byteOffset":371988},{"buffer":0,"byteLength":552,"byteOffset":372216,"byteStride":12},{"buffer":0,"byteLength":552,"byteOffset":372768,"byteStride":12},{"buffer":0,"byteLength":528,"byteOffset":373320},{"buffer":0,"byteLength":204,"byteOffset":373848,"byteStride":12},{"buffer":0,"byteLength":204,"byteOffset":374052,"byteStride":12},{"buffer":0,"byteLength":180,"byteOffset":374256},{"buffer":0,"byteLength":312,"byteOffset":374436,"byteStride":12},{"buffer":0,"byteLength":312,"byteOffset":374748,"byteStride":12},{"buffer":0,"byteLength":288,"byteOffset":375060},{"buffer":0,"byteLength":384,"byteOffset":375348,"byteStride":12},{"buffer":0,"byteLength":384,"byteOffset":375732,"byteStride":12},{"buffer":0,"byteLength":360,"byteOffset":376116},{"buffer":0,"byteLength":264,"byteOffset":376476,"byteStride":12},{"buffer":0,"byteLength":264,"byteOffset":376740,"byteStride":12},{"buffer":0,"byteLength":240,"byteOffset":377004},{"buffer":0,"byteLength":300,"byteOffset":377244,"byteStride":12},{"buffer":0,"byteLength":300,"byteOffset":377544,"byteStride":12},{"buffer":0,"byteLength":276,"byteOffset":377844},{"buffer":0,"byteLength":432,"byteOffset":378120,"byteStride":12},{"buffer":0,"byteLength":432,"byteOffset":378552,"byteStride":12},{"buffer":0,"byteLength":408,"byteOffset":378984},{"buffer":0,"byteLength":360,"byteOffset":379392,"byteStride":12},{"buffer":0,"byteLength":360,"byteOffset":379752,"byteStride":12},{"buffer":0,"byteLength":336,"byteOffset":380112},{"buffer":0,"byteLength":468,"byteOffset":380448,"byteStride":12},{"buffer":0,"byteLength":468,"byteOffset":380916,"byteStride":12},{"buffer":0,"byteLength":444,"byteOffset":381384},{"buffer":0,"byteLength":480,"byteOffset":381828,"byteStride":12},{"buffer":0,"byteLength":480,"byteOffset":382308,"byteStride":12},{"buffer":0,"byteLength":456,"byteOffset":382788},{"buffer":0,"byteLength":48,"byteOffset":383244,"byteStride":12},{"buffer":0,"byteLength":48,"byteOffset":383292,"byteStride":12},{"buffer":0,"byteLength":24,"byteOffset":383340},{"buffer":0,"byteLength":96,"byteOffset":383364,"byteStride":12},{"buffer":0,"byteLength":96,"byteOffset":383460,"byteStride":12},{"buffer":0,"byteLength":72,"byteOffset":383556},{"buffer":0,"byteLength":228,"byteOffset":383628,"byteStride":12},{"buffer":0,"byteLength":228,"byteOffset":383856,"byteStride":12},{"buffer":0,"byteLength":204,"byteOffset":384084},{"buffer":0,"byteLength":96,"byteOffset":384288,"byteStride":12},{"buffer":0,"byteLength":96,"byteOffset":384384,"byteStride":12},{"buffer":0,"byteLength":72,"byteOffset":384480},{"buffer":0,"byteLength":48,"byteOffset":384552,"byteStride":12},{"buffer":0,"byteLength":48,"byteOffset":384600,"byteStride":12},{"buffer":0,"byteLength":24,"byteOffset":384648},{"buffer":0,"byteLength":144,"byteOffset":384672,"byteStride":12},{"buffer":0,"byteLength":144,"byteOffset":384816,"byteStride":12},{"buffer":0,"byteLength":120,"byteOffset":384960},{"buffer":0,"byteLength":48,"byteOffset":385080,"byteStride":12},{"buffer":0,"byteLength":48,"byteOffset":385128,"byteStride":12},{"buffer":0,"byteLength":24,"byteOffset":385176},{"buffer":0,"byteLength":240,"byteOffset":385200,"byteStride":12},{"buffer":0,"byteLength":240,"byteOffset":385440,"byteStride":12},{"buffer":0,"byteLength":216,"byteOffset":385680},{"buffer":0,"byteLength":552,"byteOffset":385896,"byteStride":12},{"buffer":0,"byteLength":552,"byteOffset":386448,"byteStride":12},{"buffer":0,"byteLength":528,"byteOffset":387000},{"buffer":0,"byteLength":192,"byteOffset":387528,"byteStride":12},{"buffer":0,"byteLength":192,"byteOffset":387720,"byteStride":12},{"buffer":0,"byteLength":168,"byteOffset":387912},{"buffer":0,"byteLength":240,"byteOffset":388080,"byteStride":12},{"buffer":0,"byteLength":240,"byteOffset":388320,"byteStride":12},{"buffer":0,"byteLength":216,"byteOffset":388560},{"buffer":0,"byteLength":264,"byteOffset":388776,"byteStride":12},{"buffer":0,"byteLength":264,"byteOffset":389040,"byteStride":12},{"buffer":0,"byteLength":228,"byteOffset":389304}],"buffers":[{"byteLength":389532,"uri":"./diagram_resources/diagram.bin"}],"cameras":[{"name":"active","orthographic":{"xmag":40.088600158691406,"ymag":40.088600158691406,"zfar":2613.386474609375,"znear":0.0010000000474974513},"type":"orthographic"},{"name":"Isometric","orthographic":{"xmag":40.088600158691406,"ymag":40.088600158691406,"zfar":2613.386474609375,"znear":0.0010000000474974513},"type":"orthographic"},{"name":"Isometric","orthographic":{"xmag":57.39619827270508,"ymag":57.39619827270508,"zfar":2633.6435546875,"znear":0.0010000000474974513},"type":"orthographic"},{"name":"Top","orthographic":{"xmag":21.09440040588379,"ymag":21.09440040588379,"zfar":749.5189819335938,"znear":611.5897216796875},"type":"orthographic"},{"name":"Front","orthographic":{"xmag":3.5924201011657715,"ymag":3.5924201011657715,"zfar":3745.362060546875,"znear":437.3619079589844},"type":"orthographic"},{"name":"Right","orthographic":{"xmag":1.3284000158309937,"ymag":1.3284000158309937,"zfar":4110.10009765625,"znear":802.0999755859375},"type":"orthographic"},{"name":"Isometric #1","orthographic":{"xmag":40.088600158691406,"ymag":40.088600158691406,"zfar":2633.6435546875,"znear":0.0010000000474974513},"type":"orthographic"},{"name":"Isometric #1","orthographic":{"xmag":7.1537699699401855,"ymag":7.1537699699401855,"zfar":4834.0048828125,"znear":436.8932189941406},"type":"orthographic"},{"name":"Top #1","orthographic":{"xmag":61.027801513671875,"ymag":61.027801513671875,"zfar":749.5189819335938,"znear":611.5897216796875},"type":"orthographic"},{"name":"Front #1","orthographic":{"xmag":12.429699897766113,"ymag":12.429699897766113,"zfar":3745.362060546875,"znear":437.3619079589844},"type":"orthographic"},{"name":"Right #1","orthographic":{"xmag":4.613530158996582,"ymag":4.613530158996582,"zfar":4110.10009765625,"znear":802.0999755859375},"type":"orthographic"},{"name":"Isometric #2","orthographic":{"xmag":40.088600158691406,"ymag":40.088600158691406,"zfar":2633.6435546875,"znear":0.0010000000474974513},"type":"orthographic"},{"name":"Isometric #2","orthographic":{"xmag":70.88839721679688,"ymag":70.88839721679688,"zfar":2633.6435546875,"znear":0.0010000000474974513},"type":"orthographic"},{"name":"Top #2","orthographic":{"xmag":61.07229995727539,"ymag":61.07229995727539,"zfar":749.5189819335938,"znear":611.5897216796875},"type":"orthographic"},{"name":"Front #2","orthographic":{"xmag":12.440600395202637,"ymag":12.440600395202637,"zfar":3745.362060546875,"znear":437.3619079589844},"type":"orthographic"},{"name":"Isometric #2","orthographic":{"xmag":67.068603515625,"ymag":67.068603515625,"zfar":2633.64404296875,"znear":0.0010000000474974513},"type":"orthographic"},{"name":"Right #2","orthographic":{"xmag":53.63850021362305,"ymag":53.63850021362305,"zfar":2087.13623046875,"znear":0.0010000000474974513},"type":"orthographic"},{"name":"Top #3","orthographic":{"xmag":19.70170021057129,"ymag":19.70170021057129,"zfar":709.5390014648438,"znear":571.6097412109375},"type":"orthographic"},{"name":"Front #3","orthographic":{"xmag":4.1084699630737305,"ymag":4.1084699630737305,"zfar":3696.065185546875,"znear":388.0648498535156},"type":"orthographic"},{"name":"Isometric #3","orthographic":{"xmag":84.0886001586914,"ymag":84.0886001586914,"zfar":2636.024169921875,"znear":0.0010000000474974513},"type":"orthographic"}],"materials":[{"doubleSided":true,"name":"Interior Diffuse White #28","pbrMetallicRoughness":{"baseColorFactor":[0.6782029867172241,0.6782029867172241,0.6782029867172241,1.0],"metallicFactor":0.0,"roughnessFactor":1.0}},{"doubleSided":true,"name":"Interior Diffuse White #29","pbrMetallicRoughness":{"baseColorFactor":[0.6782029867172241,0.6782029867172241,0.6782029867172241,1.0],"metallicFactor":0.0,"roughnessFactor":1.0}},{"doubleSided":true,"name":"Interior Diffuse White #31","pbrMetallicRoughness":{"baseColorFactor":[0.6782029867172241,0.6782029867172241,0.6782029867172241,1.0],"metallicFactor":0.0,"roughnessFactor":1.0}},{"doubleSided":true,"name":"Interior Diffuse White #34","pbrMetallicRoughness":{"baseColorFactor":[0.6782029867172241,0.6782029867172241,0.6782029867172241,1.0],"metallicFactor":0.0,"roughnessFactor":1.0}},{"doubleSided":true,"name":"Interior Diffuse White #30","pbrMetallicRoughness":{"baseColorFactor":[0.6782029867172241,0.6782029867172241,0.6782029867172241,1.0],"metallicFactor":0.0,"roughnessFactor":1.0}},{"doubleSided":true,"name":"Interior Diffuse White #33","pbrMetallicRoughness":{"baseColorFactor":[0.6782029867172241,0.6782029867172241,0.6782029867172241,1.0],"metallicFactor":0.0,"roughnessFactor":1.0}},{"doubleSided":true,"name":"Interior Diffuse White #32","pbrMetallicRoughness":{"baseColorFactor":[0.6782029867172241,0.6782029867172241,0.6782029867172241,1.0],"metallicFactor":0.0,"roughnessFactor":1.0}},{"doubleSided":true,"name":"Interior Diffuse White #35","pbrMetallicRoughness":{"baseColorFactor":[0.24242424964904785,0.24242424964904785,0.24242424964904785,1.0],"metallicFactor":0.0,"roughnessFactor":1.0}},{"doubleSided":true,"name":"Interior Diffuse White #27","pbrMetallicRoughness":{"baseColorFactor":[0.6782029867172241,0.6782029867172241,0.6782029867172241,1.0],"metallicFactor":0.0,"roughnessFactor":1.0}},{"doubleSided":true,"name":"Interior Diffuse White #36","pbrMetallicRoughness":{"baseColorFactor":[0.8989899158477783,0.8989899158477783,0.8989899158477783,1.0],"metallicFactor":0.0,"roughnessFactor":1.0}},{"doubleSided":true,"name":"Interior Diffuse White #37","pbrMetallicRoughness":{"baseColorFactor":[0.510948896408081,0.510948896408081,0.510948896408081,1.0],"metallicFactor":0.0,"roughnessFactor":1.0}},{"doubleSided":true,"name":"Figurwe_shoes:105:105:105","pbrMetallicRoughness":{"baseColorFactor":[0.4289219081401825,0.4289219379425049,0.4289219081401825,1.0],"metallicFactor":0.0,"roughnessFactor":0.0}},{"doubleSided":true,"name":"Interior Diffuse White #38","pbrMetallicRoughness":{"baseColorFactor":[0.7518247961997986,0.7518247961997986,0.7518247961997986,1.0],"metallicFactor":0.0,"roughnessFactor":1.0}},{"doubleSided":true,"name":"Figurwe_shoes:105:105:105 #1","pbrMetallicRoughness":{"baseColorFactor":[0.4289219081401825,0.4289219379425049,0.4289219081401825,1.0],"metallicFactor":0.0,"roughnessFactor":0.0}},{"doubleSided":true,"name":"Interior Diffuse White #1","pbrMetallicRoughness":{"baseColorFactor":[0.7518247961997986,0.7518247961997986,0.7518247961997986,1.0],"metallicFactor":0.0,"roughnessFactor":1.0}}],"meshes":[{"name":"Descent_1(0E4F828E-92FE-475A-8D9F-50B998E4B9A0)-mesh","primitives":[{"attributes":{"NORMAL":1,"POSITION":0},"indices":2,"material":0,"mode":4}]},{"name":"Descent_1(9A38A2C2-4F6C-448E-801B-49D22E4B7601)-mesh","primitives":[{"attributes":{"NORMAL":4,"POSITION":3},"indices":5,"material":0,"mode":4}]},{"name":"Descent_1(CC13A1E4-CD15-4301-9B0B-2A17FFBEFCC0)-mesh","primitives":[{"attributes":{"NORMAL":7,"POSITION":6},"indices":8,"material":0,"mode":4}]},{"name":"Descent_1(F9EF02B2-9C19-4478-8E7F-0630CB0C1AB8)-mesh","primitives":[{"attributes":{"NORMAL":10,"POSITION":9},"indices":11,"material":0,"mode":4}]},{"name":"Descent_1(BDFD9C9E-AF26-468C-82DB-9D71E949944D)-mesh","primitives":[{"attributes":{"NORMAL":13,"POSITION":12},"indices":14,"material":0,"mode":4}]},{"name":"Descent_1(1823FA64-A663-433A-B353-53F075BFC8DF)-mesh","primitives":[{"attributes":{"NORMAL":16,"POSITION":15},"indices":17,"material":0,"mode":4}]},{"name":"Descent_1(B80E269B-711E-48DE-B097-C167469B5467)-mesh","primitives":[{"attributes":{"NORMAL":19,"POSITION":18},"indices":20,"material":0,"mode":4}]},{"name":"Descent_1(3C187871-BBC9-4666-9569-5B3D1D097DAB)-mesh","primitives":[{"attributes":{"NORMAL":22,"POSITION":21},"indices":23,"material":0,"mode":4}]},{"name":"Descent_1(9DF563FA-AB9D-4C67-8290-15F1446966C9)-mesh","primitives":[{"attributes":{"NORMAL":25,"POSITION":24},"indices":26,"material":0,"mode":4}]},{"name":"Descent_1(1264653F-FB0A-425E-AFB7-F1BB01EE5505)-mesh","primitives":[{"attributes":{"NORMAL":28,"POSITION":27},"indices":29,"material":0,"mode":4}]},{"name":"Descent_2(05C7C9DE-12D5-4F82-AAB2-2277EAC4814F)-mesh","primitives":[{"attributes":{"NORMAL":31,"POSITION":30},"indices":32,"material":1,"mode":4}]},{"name":"Descent_3(57915FEA-0EF8-4C1E-9DAD-AC10D52726E0)-mesh","primitives":[{"attributes":{"NORMAL":34,"POSITION":33},"indices":35,"material":2,"mode":4}]},{"name":"Descent_3(0D4043EB-73EA-4E74-97BE-BFBAD9E4C87C)-mesh","primitives":[{"attributes":{"NORMAL":37,"POSITION":36},"indices":38,"material":2,"mode":4}]},{"name":"Iteration_2(979B98FE-E6C4-4398-B273-77874881AB9C)-mesh","primitives":[{"attributes":{"NORMAL":40,"POSITION":39},"indices":41,"material":3,"mode":4}]},{"name":"Iteration_1(EF925745-F0FF-4074-BEB6-7F1C1F1E7AF2)-mesh","primitives":[{"attributes":{"NORMAL":43,"POSITION":42},"indices":44,"material":4,"mode":4}]},{"name":"Perspective(C9D4D2CB-8F8D-41AA-98E4-5BAFE0BDEE63)-mesh","primitives":[{"attributes":{"NORMAL":46,"POSITION":45},"indices":47,"material":5,"mode":4}]},{"name":"Answers(7431B625-D4E7-4B91-B524-CED1BC13F142)-mesh","primitives":[{"attributes":{"NORMAL":49,"POSITION":48},"indices":50,"material":6,"mode":4}]},{"name":"Answers(BD1B2997-6451-4246-8C5F-28705734BFAB)-mesh","primitives":[{"attributes":{"NORMAL":52,"POSITION":51},"indices":53,"material":6,"mode":4}]},{"name":"Answers(155D753B-E806-4611-8EF5-F4773B291B0A)-mesh","primitives":[{"attributes":{"NORMAL":55,"POSITION":54},"indices":56,"material":6,"mode":4}]},{"name":"Answers(0399EF4C-1DF0-4A9F-9718-CF659B7140CE)-mesh","primitives":[{"attributes":{"NORMAL":58,"POSITION":57},"indices":59,"material":6,"mode":4}]},{"name":"Figure_skin(07E1E660-DA88-412F-A956-0117204BADB2)-mesh","primitives":[{"attributes":{"NORMAL":61,"POSITION":60},"indices":62,"material":7,"mode":4}]},{"name":"Figure_skin(0705740C-30C4-4D35-B339-B4DD1AD67D4A)-mesh","primitives":[{"attributes":{"NORMAL":64,"POSITION":63},"indices":65,"material":7,"mode":4}]},{"name":"Figure_skin(D1B107E0-DFCC-45DE-B6C9-59F0338B31DF)-mesh","primitives":[{"attributes":{"NORMAL":67,"POSITION":66},"indices":68,"material":7,"mode":4}]},{"name":"Figure_skin(958EBEAC-9140-423D-A970-A0BA1E647CD7)-mesh","primitives":[{"attributes":{"NORMAL":70,"POSITION":69},"indices":71,"material":7,"mode":4}]},{"name":"Figure_skin(F9DBEE38-4CCD-4E60-877A-AE79B8F1F168)-mesh","primitives":[{"attributes":{"NORMAL":73,"POSITION":72},"indices":74,"material":7,"mode":4}]},{"name":"Figure_skin(9E9FB22A-95B7-4B5C-9EC0-8B1521BFB725)-mesh","primitives":[{"attributes":{"NORMAL":76,"POSITION":75},"indices":77,"material":7,"mode":4}]},{"name":"Figure_skin(6F09CC4F-93FC-4B03-87E3-AF2F90B47FE0)-mesh","primitives":[{"attributes":{"NORMAL":79,"POSITION":78},"indices":80,"material":7,"mode":4}]},{"name":"Figure_skin(CC28A4F6-6E31-4252-8DE2-6C9335B12F66)-mesh","primitives":[{"attributes":{"NORMAL":82,"POSITION":81},"indices":83,"material":7,"mode":4}]},{"name":"Figure_skin(2B70A466-5C30-4FF8-B4F1-766FF29136A7)-mesh","primitives":[{"attributes":{"NORMAL":85,"POSITION":84},"indices":86,"material":7,"mode":4}]},{"name":"Figure_skin(F19A3DAF-113E-42A0-8A23-0CB8900B548F)-mesh","primitives":[{"attributes":{"NORMAL":88,"POSITION":87},"indices":89,"material":7,"mode":4}]},{"name":"Figure_skin(B2450759-C3CF-4F28-8F63-8CF0348C8778)-mesh","primitives":[{"attributes":{"NORMAL":91,"POSITION":90},"indices":92,"material":7,"mode":4}]},{"name":"Figure_skin(F1429B0B-681F-445E-8FD2-BFFE319E8440)-mesh","primitives":[{"attributes":{"NORMAL":94,"POSITION":93},"indices":95,"material":7,"mode":4}]},{"name":"Figure_skin(50EFCD06-4635-4150-8B29-B230D77E47E5)-mesh","primitives":[{"attributes":{"NORMAL":97,"POSITION":96},"indices":98,"material":7,"mode":4}]},{"name":"Figure_skin(C79A6F95-43E8-4743-815F-4D1FA704ED23)-mesh","primitives":[{"attributes":{"NORMAL":100,"POSITION":99},"indices":101,"material":7,"mode":4}]},{"name":"Figure_skin(23303A93-CBF5-41F6-B9F4-2BB38644D57D)-mesh","primitives":[{"attributes":{"NORMAL":103,"POSITION":102},"indices":104,"material":7,"mode":4}]},{"name":"Figure_skin(42547F2E-3E0C-41A5-AD97-42D7B4843C84)-mesh","primitives":[{"attributes":{"NORMAL":106,"POSITION":105},"indices":107,"material":7,"mode":4}]},{"name":"Figure_skin(DF6F1E1C-4044-4888-A818-03EC00CBD8CD)-mesh","primitives":[{"attributes":{"NORMAL":109,"POSITION":108},"indices":110,"material":7,"mode":4}]},{"name":"Figure_skin(AAEE4CCD-CE59-48DE-9EF1-79F0297BF77B)-mesh","primitives":[{"attributes":{"NORMAL":112,"POSITION":111},"indices":113,"material":7,"mode":4}]},{"name":"Figure_skin(3C3B1BCB-EFFF-47F7-AA25-B7EE9928882B)-mesh","primitives":[{"attributes":{"NORMAL":115,"POSITION":114},"indices":116,"material":7,"mode":4}]},{"name":"Figure_skin(7761134F-544E-457C-A299-871D1E27A6ED)-mesh","primitives":[{"attributes":{"NORMAL":118,"POSITION":117},"indices":119,"material":7,"mode":4}]},{"name":"Figure_skin(79CF08BA-2CB5-4B41-A561-82452600EC79)-mesh","primitives":[{"attributes":{"NORMAL":121,"POSITION":120},"indices":122,"material":7,"mode":4}]},{"name":"Figure_skin(1240D4BD-954B-454C-9006-F983D7668546)-mesh","primitives":[{"attributes":{"NORMAL":124,"POSITION":123},"indices":125,"material":7,"mode":4}]},{"name":"Figure_skin(9D119B13-FD00-4902-A901-651680EF7DA9)-mesh","primitives":[{"attributes":{"NORMAL":127,"POSITION":126},"indices":128,"material":7,"mode":4}]},{"name":"Figure_skin(7BFC6970-3681-42A5-A381-EA870A2F50D7)-mesh","primitives":[{"attributes":{"NORMAL":130,"POSITION":129},"indices":131,"material":7,"mode":4}]},{"name":"Figure_skin(4B3E723B-F48B-4C6E-B8C2-F6DBBC40CBC2)-mesh","primitives":[{"attributes":{"NORMAL":133,"POSITION":132},"indices":134,"material":7,"mode":4}]},{"name":"Question(9AEA77B5-D598-4B80-8109-7D64AA73A269)-mesh","primitives":[{"attributes":{"NORMAL":136,"POSITION":135},"indices":137,"material":8,"mode":4}]},{"name":"Figure_pants(6FA7F6F8-133B-42C6-9920-982F392C5B2C)-mesh","primitives":[{"attributes":{"NORMAL":139,"POSITION":138},"indices":140,"material":9,"mode":4}]},{"name":"Figure_pants(765C8EB2-9DDE-4AAF-BB0E-C045CFE95BEF)-mesh","primitives":[{"attributes":{"NORMAL":142,"POSITION":141},"indices":143,"material":9,"mode":4}]},{"name":"Figure_pants(D4C04F4D-3C60-4C29-9060-4E226594B89E)-mesh","primitives":[{"attributes":{"NORMAL":145,"POSITION":144},"indices":146,"material":9,"mode":4}]},{"name":"Figure_pants(7E484C1C-8014-4596-A835-4BD95F0B0E0E)-mesh","primitives":[{"attributes":{"NORMAL":148,"POSITION":147},"indices":149,"material":9,"mode":4}]},{"name":"Figure_pants(B7D72E77-65BC-4DF3-880D-00FAB6516147)-mesh","primitives":[{"attributes":{"NORMAL":151,"POSITION":150},"indices":152,"material":9,"mode":4}]},{"name":"Figure_pants(AFF36E6B-60D6-4AF1-813D-F4DE57A24EEA)-mesh","primitives":[{"attributes":{"NORMAL":154,"POSITION":153},"indices":155,"material":9,"mode":4}]},{"name":"Figure_pants(A68195B3-0263-4BF5-804B-A227971D4A28)-mesh","primitives":[{"attributes":{"NORMAL":157,"POSITION":156},"indices":158,"material":9,"mode":4}]},{"name":"Figure_pants(83E94D6E-90E7-426F-927B-654FC6DA3C8D)-mesh","primitives":[{"attributes":{"NORMAL":160,"POSITION":159},"indices":161,"material":9,"mode":4}]},{"name":"Figure_shirts(4F4F0A43-AE79-492C-BF90-D848386C1DFA)-mesh","primitives":[{"attributes":{"NORMAL":163,"POSITION":162},"indices":164,"material":10,"mode":4}]},{"name":"Figure_shirts(B40CB06F-603F-447C-9668-29FC4B0DA931)-mesh","primitives":[{"attributes":{"NORMAL":166,"POSITION":165},"indices":167,"material":10,"mode":4}]},{"name":"Figure_shirts(2361BF60-0CF9-4119-AE58-6C3C4B77D339)-mesh","primitives":[{"attributes":{"NORMAL":169,"POSITION":168},"indices":170,"material":10,"mode":4}]},{"name":"Figure_shirts(27F74743-A894-4B5A-B5BF-5A2E2BFE8D46)-mesh","primitives":[{"attributes":{"NORMAL":172,"POSITION":171},"indices":173,"material":10,"mode":4}]},{"name":"Figure_shirts(9647B1E1-52E5-4A8D-AE9F-4E9D6959ADBF)-mesh","primitives":[{"attributes":{"NORMAL":175,"POSITION":174},"indices":176,"material":10,"mode":4}]},{"name":"Figure_shirts(49BD3AB6-16E7-4CB4-9DB5-8840EA0ABB35)-mesh","primitives":[{"attributes":{"NORMAL":178,"POSITION":177},"indices":179,"material":10,"mode":4}]},{"name":"Figurwe_shoes(8BA3D33F-60B1-4225-B20B-692A9809363A)-mesh","primitives":[{"attributes":{"NORMAL":181,"POSITION":180},"indices":182,"material":11,"mode":4}]},{"name":"Figurwe_shoes(4EABE7C6-5649-4BD7-95A6-AA7509E1863A)-mesh","primitives":[{"attributes":{"NORMAL":184,"POSITION":183},"indices":185,"material":11,"mode":4}]},{"name":"Figurwe_shoes(905EB6F9-EA32-4712-A5B8-77BDC4528A78)-mesh","primitives":[{"attributes":{"NORMAL":187,"POSITION":186},"indices":188,"material":11,"mode":4}]},{"name":"Figurwe_shoes(533D81BE-393F-46DA-B344-0735B1078B68)-mesh","primitives":[{"attributes":{"NORMAL":190,"POSITION":189},"indices":191,"material":11,"mode":4}]},{"name":"Figurwe_shoes(1CD7FBDC-3CEB-4CE4-9B1D-D4FB2E9021C9)-mesh","primitives":[{"attributes":{"NORMAL":193,"POSITION":192},"indices":194,"material":11,"mode":4}]},{"name":"Figurwe_shoes(B83A442B-5EE7-496A-A5BE-86A917C3254D)-mesh","primitives":[{"attributes":{"NORMAL":196,"POSITION":195},"indices":197,"material":11,"mode":4}]},{"name":"Figurwe_shoes(0E37556F-A508-41CC-AF78-D182946B2B6A)-mesh","primitives":[{"attributes":{"NORMAL":199,"POSITION":198},"indices":200,"material":11,"mode":4}]},{"name":"Figure_hair(6E8D12E7-E770-41F9-BF84-9BCA73272D94)-mesh","primitives":[{"attributes":{"NORMAL":202,"POSITION":201},"indices":203,"material":12,"mode":4}]},{"name":"Figure_hair(26812406-4DAE-4087-827B-578D425FB00C)-mesh","primitives":[{"attributes":{"NORMAL":205,"POSITION":204},"indices":206,"material":12,"mode":4}]},{"name":"Figure_hair(3BC91998-B3D2-43B4-9A62-5DA916A4D0DF)-mesh","primitives":[{"attributes":{"NORMAL":208,"POSITION":207},"indices":209,"material":12,"mode":4}]},{"name":"Figure_hair(3C0604A7-1644-4951-BAEB-A1E3AC1E4A40)-mesh","primitives":[{"attributes":{"NORMAL":211,"POSITION":210},"indices":212,"material":12,"mode":4}]},{"name":"Figure_hair(F5D9CE69-2933-469E-A5BD-03B1DE52E003)-mesh","primitives":[{"attributes":{"NORMAL":214,"POSITION":213},"indices":215,"material":12,"mode":4}]},{"name":"Figure_hair(74E7E967-6619-4C62-A5B1-531F569F94E4)-mesh","primitives":[{"attributes":{"NORMAL":217,"POSITION":216},"indices":218,"material":12,"mode":4}]},{"name":"Figure_hair(2F7F8280-D3B4-4A55-85B9-A510F96CAD3B)-mesh","primitives":[{"attributes":{"NORMAL":220,"POSITION":219},"indices":221,"material":12,"mode":4}]},{"name":"Figure_skin(87247646-2DBB-4C4B-A2B7-9BFC0C9A5C3F)-mesh","primitives":[{"attributes":{"NORMAL":223,"POSITION":222},"indices":224,"material":7,"mode":4}]},{"name":"Figure_skin(BF5A901D-CB28-41DA-91AF-D93BF555AEC5)-mesh","primitives":[{"attributes":{"NORMAL":226,"POSITION":225},"indices":227,"material":7,"mode":4}]},{"name":"Figure_skin(7FB5B065-D238-4A8C-84AA-B3B8EE37ED03)-mesh","primitives":[{"attributes":{"NORMAL":229,"POSITION":228},"indices":230,"material":7,"mode":4}]},{"name":"Figure_skin(C25F0671-9928-45B3-97FC-69AB55A357AB)-mesh","primitives":[{"attributes":{"NORMAL":232,"POSITION":231},"indices":233,"material":7,"mode":4}]},{"name":"Figure_skin(FB24B4CF-1FD2-43B3-BB7A-94EA3D7A4C9A)-mesh","primitives":[{"attributes":{"NORMAL":235,"POSITION":234},"indices":236,"material":7,"mode":4}]},{"name":"Figure_skin(6E69D4B0-08CF-4B9C-B2C6-4AE1D33F5136)-mesh","primitives":[{"attributes":{"NORMAL":238,"POSITION":237},"indices":239,"material":7,"mode":4}]},{"name":"Figure_pants(8165CC5C-D680-445E-B149-6847DE2205DE)-mesh","primitives":[{"attributes":{"NORMAL":241,"POSITION":240},"indices":242,"material":9,"mode":4}]},{"name":"Figure_pants(835D64E0-EBB1-42E9-94EB-502A5ED41F54)-mesh","primitives":[{"attributes":{"NORMAL":244,"POSITION":243},"indices":245,"material":9,"mode":4}]},{"name":"Figure_shirts(A37EB220-E730-4BAB-8B05-E0CAE69D7B5A)-mesh","primitives":[{"attributes":{"NORMAL":247,"POSITION":246},"indices":248,"material":10,"mode":4}]},{"name":"Figurwe_shoes(DF590D39-8FB8-4199-BE13-0578281540A7)-mesh","primitives":[{"attributes":{"NORMAL":250,"POSITION":249},"indices":251,"material":13,"mode":4}]},{"name":"Figurwe_shoes(3F41B6AD-195F-466B-9325-95D708239F18)-mesh","primitives":[{"attributes":{"NORMAL":253,"POSITION":252},"indices":254,"material":13,"mode":4}]},{"name":"Figure_hair(9A5578D5-A33B-4CF7-B98F-96D95897189B)-mesh","primitives":[{"attributes":{"NORMAL":256,"POSITION":255},"indices":257,"material":14,"mode":4}]}],"nodes":[{"camera":0,"matrix":[-0.000579281285815422,2.148596163209504e-10,-0.000815127712174057,0.0,-0.0002704854562498642,0.00094333843199389,0.00019222431434482747,0.0,0.0007689413428306579,0.0003318321406841278,-0.0005464582443237305,0.0,0.31992272949218753,0.20333277893066407,-0.22735728454589843,1.0],"name":"active"},{"camera":1,"matrix":[-0.000579281285815422,2.148596163209504e-10,-0.000815127712174057,0.0,-0.0002704854562498642,0.00094333843199389,0.00019222431434482747,0.0,0.0007689413428306579,0.0003318321406841278,-0.0005464582443237305,0.0,0.31992272949218753,0.20333277893066407,-0.22735728454589843,1.0],"name":"Isometric"},{"camera":2,"matrix":[-0.000579281296185809,2.0757894145240208e-10,-0.0008151277077174802,0.0,-0.0002704854641925938,0.0009433384472059407,0.00019222431605577252,0.0,0.0007689413459748441,0.00033183214736158935,-0.0005464582622925483,0.0,0.3351449890136719,0.20744499969482422,-0.2405099449157715,1.0],"name":"Isometric"},{"camera":3,"matrix":[0.001,0.0,0.0,0.0,0.0,6.123233995736766e-20,-0.001,0.0,0.0,0.001,6.123233995736766e-20,0.0,0.028349998474121094,0.7495189743041992,-0.06473794937133784,1.0],"name":"Top"},{"camera":4,"matrix":[0.001,0.0,0.0,0.0,0.0,0.001,6.123233995736766e-20,0.0,0.0,-6.123233995736766e-20,0.001,0.0,-0.005176597595214844,0.08114499664306629,2.091362033843994,1.0],"name":"Front"},{"camera":5,"matrix":[0.0,6.123233995736766e-20,-0.001,0.0,0.0,0.001,6.123233995736766e-20,0.0,0.001,0.0,0.0,0.0,2.45610009765625,0.09247499847412109,-0.02059105300903319,1.0],"name":"Right"},{"camera":6,"matrix":[-0.000579281296185809,2.0757894145240208e-10,-0.0008151277077174802,0.0,-0.0002704854641925938,0.0009433384472059407,0.00019222431605577252,0.0,0.0007689413459748441,0.00033183214736158935,-0.0005464582622925483,0.0,0.34180899047851565,0.21523400115966798,-0.22640295028686525,1.0],"name":"Isometric #1"},{"camera":7,"matrix":[-0.000579281296185809,2.0757894145240208e-10,-0.0008151277077174802,0.0,-0.0002704854641925938,0.0009433384472059407,0.00019222431605577252,0.0,0.0007689413459748441,0.00033183214736158935,-0.0005464582622925483,0.0,2.0685000000000002,0.9805330123901368,-1.358577907562256,1.0],"name":"Isometric #1"},{"camera":8,"matrix":[0.001,0.0,0.0,0.0,0.0,6.123233995736766e-20,-0.001,0.0,0.0,0.001,6.123233995736766e-20,0.0,-0.03157920074462891,0.7495189743041992,-0.06603495407104487,1.0],"name":"Top #1"},{"camera":9,"matrix":[0.001,0.0,0.0,0.0,0.0,0.001,6.123233995736766e-20,0.0,0.0,-6.123233995736766e-20,0.001,0.0,-0.07733160018920898,0.04778099822998036,2.091362033843994,1.0],"name":"Front #1"},{"camera":10,"matrix":[0.0,6.123233995736766e-20,-0.001,0.0,0.0,0.001,6.123233995736766e-20,0.0,0.001,0.0,0.0,0.0,2.45610009765625,0.056013999938964845,0.005434349060058601,1.0],"name":"Right #1"},{"camera":11,"matrix":[-0.000579281296185809,2.0757894145240208e-10,-0.0008151277077174802,0.0,-0.0002704854641925938,0.0009433384472059407,0.00019222431605577252,0.0,0.0007689413459748441,0.00033183214736158935,-0.0005464582622925483,0.0,0.34180899047851565,0.21523400115966798,-0.22640295028686525,1.0],"name":"Isometric #2"},{"camera":12,"matrix":[-0.000579281296185809,2.0757894145240208e-10,-0.0008151277077174802,0.0,-0.0002704854641925938,0.0009433384472059407,0.00019222431605577252,0.0,0.0007689413459748441,0.00033183214736158935,-0.0005464582622925483,0.0,0.34180899047851565,0.21523400115966798,-0.22640295028686525,1.0],"name":"Isometric #2"},{"camera":13,"matrix":[0.001,0.0,0.0,0.0,0.0,6.123233995736766e-20,-0.001,0.0,0.0,0.001,6.123233995736766e-20,0.0,-0.03157920074462891,0.7495189743041992,-0.06603495407104487,1.0],"name":"Top #2"},{"camera":14,"matrix":[0.001,0.0,0.0,0.0,0.0,0.001,6.123233995736766e-20,0.0,0.0,-6.123233995736766e-20,0.001,0.0,-0.07733160018920898,0.04778099822998036,2.091362033843994,1.0],"name":"Front #2"},{"camera":15,"matrix":[-0.000579281296185809,2.0757894145240208e-10,-0.0008151277077174802,0.0,-0.0002704854641925938,0.0009433384472059407,0.00019222431605577252,0.0,0.0007689413459748441,0.00033183214736158935,-0.0005464582622925483,0.0,0.3615119934082031,0.19519100189208985,-0.2108499412536621,1.0],"name":"Isometric #2"},{"camera":16,"matrix":[0.0,6.123233995736766e-20,-0.001,0.0,0.0,0.001,6.123233995736766e-20,0.0,0.001,0.0,0.0,0.0,0.433135986328125,0.013350006103515626,-0.0011799001693725498,1.0],"name":"Right #2"},{"camera":17,"matrix":[0.001,0.0,0.0,0.0,0.0,6.123233995736766e-20,-0.001,0.0,0.0,0.001,6.123233995736766e-20,0.0,0.024777008056640626,0.7095389709472656,0.017033289909362846,1.0],"name":"Top #3"},{"camera":18,"matrix":[0.001,0.0,0.0,0.0,0.0,0.001,6.123233995736766e-20,0.0,0.0,-6.123233995736766e-20,0.001,0.0,-0.014134300231933595,0.008154998779296761,2.042064985275269,1.0],"name":"Front #3"},{"camera":19,"matrix":[-0.000579281296185809,2.0757894145240208e-10,-0.0008151277077174802,0.0,-0.0002704854641925938,0.0009433384472059407,0.00019222431605577252,0.0,0.0007689413459748441,0.00033183214736158935,-0.0005464582622925483,0.0,0.3591600036621094,0.16376199340820313,-0.23759999275207516,1.0],"name":"Isometric #3"},{"mesh":0,"name":"Descent_1(0E4F828E-92FE-475A-8D9F-50B998E4B9A0)"},{"mesh":1,"name":"Descent_1(9A38A2C2-4F6C-448E-801B-49D22E4B7601)"},{"mesh":2,"name":"Descent_1(CC13A1E4-CD15-4301-9B0B-2A17FFBEFCC0)"},{"mesh":3,"name":"Descent_1(F9EF02B2-9C19-4478-8E7F-0630CB0C1AB8)"},{"mesh":4,"name":"Descent_1(BDFD9C9E-AF26-468C-82DB-9D71E949944D)"},{"mesh":5,"name":"Descent_1(1823FA64-A663-433A-B353-53F075BFC8DF)"},{"mesh":6,"name":"Descent_1(B80E269B-711E-48DE-B097-C167469B5467)"},{"mesh":7,"name":"Descent_1(3C187871-BBC9-4666-9569-5B3D1D097DAB)"},{"mesh":8,"name":"Descent_1(9DF563FA-AB9D-4C67-8290-15F1446966C9)"},{"mesh":9,"name":"Descent_1(1264653F-FB0A-425E-AFB7-F1BB01EE5505)"},{"children":[20,21,22,23,24,25,26,27,28,29],"name":"Descent_1"},{"mesh":10,"name":"Descent_2(05C7C9DE-12D5-4F82-AAB2-2277EAC4814F)"},{"children":[31],"name":"Descent_2"},{"mesh":11,"name":"Descent_3(57915FEA-0EF8-4C1E-9DAD-AC10D52726E0)"},{"mesh":12,"name":"Descent_3(0D4043EB-73EA-4E74-97BE-BFBAD9E4C87C)"},{"children":[33,34],"name":"Descent_3"},{"mesh":13,"name":"Iteration_2(979B98FE-E6C4-4398-B273-77874881AB9C)"},{"children":[36],"name":"Iteration_2"},{"mesh":14,"name":"Iteration_1(EF925745-F0FF-4074-BEB6-7F1C1F1E7AF2)"},{"children":[38],"name":"Iteration_1"},{"mesh":15,"name":"Perspective(C9D4D2CB-8F8D-41AA-98E4-5BAFE0BDEE63)"},{"children":[40],"name":"Perspective"},{"mesh":16,"name":"Answers(7431B625-D4E7-4B91-B524-CED1BC13F142)"},{"mesh":17,"name":"Answers(BD1B2997-6451-4246-8C5F-28705734BFAB)"},{"mesh":18,"name":"Answers(155D753B-E806-4611-8EF5-F4773B291B0A)"},{"mesh":19,"name":"Answers(0399EF4C-1DF0-4A9F-9718-CF659B7140CE)"},{"children":[42,43,44,45],"name":"Answers"},{"matrix":[1.178175626955805,0.0,0.0,0.0,0.0,1.178175626955805,-1.3521499637056593e-32,0.0,0.0,1.3521499637056593e-32,1.178175626955805,0.0,-24.537461251208683,-5.75591699862981,-20.246422834899356,0.9999999999999987],"mesh":20,"name":"Figure_skin(07E1E660-DA88-412F-A956-0117204BADB2)"},{"matrix":[1.178175626955805,0.0,0.0,0.0,0.0,1.178175626955805,-1.3521499637056593e-32,0.0,0.0,1.3521499637056593e-32,1.178175626955805,0.0,-24.537461251208683,-5.75591699862981,-20.246422834899356,0.9999999999999987],"mesh":21,"name":"Figure_skin(0705740C-30C4-4D35-B339-B4DD1AD67D4A)"},{"matrix":[1.178175626955805,0.0,0.0,0.0,0.0,1.178175626955805,-1.3521499637056593e-32,0.0,0.0,1.3521499637056593e-32,1.178175626955805,0.0,-24.537461251208683,-5.75591699862981,-20.246422834899356,0.9999999999999987],"mesh":22,"name":"Figure_skin(D1B107E0-DFCC-45DE-B6C9-59F0338B31DF)"},{"matrix":[1.178175626955805,0.0,0.0,0.0,0.0,1.178175626955805,-1.3521499637056623e-32,0.0,0.0,1.3521499637056623e-32,1.178175626955805,0.0,-24.537461251208647,-4.797654844520921,-20.457921495018393,0.9999999999999987],"mesh":23,"name":"Figure_skin(958EBEAC-9140-423D-A970-A0BA1E647CD7)"},{"matrix":[1.178175626955805,0.0,0.0,0.0,0.0,1.178175626955805,-1.3521499637056623e-32,0.0,0.0,1.3521499637056623e-32,1.178175626955805,0.0,-24.537461251208647,-4.797654844520921,-20.457921495018393,0.9999999999999987],"mesh":24,"name":"Figure_skin(F9DBEE38-4CCD-4E60-877A-AE79B8F1F168)"},{"matrix":[1.0,0.0,0.0,0.0,0.0,1.0,0.0,0.0,0.0,0.0,1.0,0.0,0.0,-1.1453650130746256e-15,-0.7835853314152956,1.0],"mesh":25,"name":"Figure_skin(9E9FB22A-95B7-4B5C-9EC0-8B1521BFB725)"},{"matrix":[1.0,0.0,0.0,0.0,0.0,1.0,0.0,0.0,0.0,0.0,1.0,0.0,0.0,-1.1453650130746256e-15,-0.7835853314152956,1.0],"mesh":26,"name":"Figure_skin(6F09CC4F-93FC-4B03-87E3-AF2F90B47FE0)"},{"matrix":[1.0,0.0,0.0,0.0,0.0,1.0,0.0,0.0,0.0,0.0,1.0,0.0,0.0,-1.1453650130746256e-15,-0.7835853314152956,1.0],"mesh":27,"name":"Figure_skin(CC28A4F6-6E31-4252-8DE2-6C9335B12F66)"},{"mesh":28,"name":"Figure_skin(2B70A466-5C30-4FF8-B4F1-766FF29136A7)"},{"mesh":29,"name":"Figure_skin(F19A3DAF-113E-42A0-8A23-0CB8900B548F)"},{"mesh":30,"name":"Figure_skin(B2450759-C3CF-4F28-8F63-8CF0348C8778)"},{"mesh":31,"name":"Figure_skin(F1429B0B-681F-445E-8FD2-BFFE319E8440)"},{"mesh":32,"name":"Figure_skin(50EFCD06-4635-4150-8B29-B230D77E47E5)"},{"matrix":[1.0,0.0,0.0,0.0,0.0,1.0,0.0,0.0,0.0,0.0,1.0,0.0,0.0,-4.226691775021244e-17,-0.6902711505005357,1.0],"mesh":33,"name":"Figure_skin(C79A6F95-43E8-4743-815F-4D1FA704ED23)"},{"matrix":[1.0,0.0,0.0,0.0,0.0,1.0,0.0,0.0,0.0,0.0,1.0,0.0,0.0,-4.226691775021244e-17,-0.6902711505005357,1.0],"mesh":34,"name":"Figure_skin(23303A93-CBF5-41F6-B9F4-2BB38644D57D)"},{"matrix":[1.0,0.0,0.0,0.0,0.0,1.0,0.0,0.0,0.0,0.0,1.0,0.0,0.0,-4.226691775021244e-17,-0.6902711505005357,1.0],"mesh":35,"name":"Figure_skin(42547F2E-3E0C-41A5-AD97-42D7B4843C84)"},{"mesh":36,"name":"Figure_skin(DF6F1E1C-4044-4888-A818-03EC00CBD8CD)"},{"mesh":37,"name":"Figure_skin(AAEE4CCD-CE59-48DE-9EF1-79F0297BF77B)"},{"mesh":38,"name":"Figure_skin(3C3B1BCB-EFFF-47F7-AA25-B7EE9928882B)"},{"mesh":39,"name":"Figure_skin(7761134F-544E-457C-A299-871D1E27A6ED)"},{"mesh":40,"name":"Figure_skin(79CF08BA-2CB5-4B41-A561-82452600EC79)"},{"matrix":[1.0,0.0,0.0,0.0,0.0,1.0,0.0,0.0,0.0,0.0,1.0,0.0,0.0,2.243029238003583e-16,3.663144736205197,1.0],"mesh":41,"name":"Figure_skin(1240D4BD-954B-454C-9006-F983D7668546)"},{"matrix":[1.0,0.0,0.0,0.0,0.0,1.0,0.0,0.0,0.0,0.0,1.0,0.0,0.0,2.243029238003583e-16,3.663144736205197,1.0],"mesh":42,"name":"Figure_skin(9D119B13-FD00-4902-A901-651680EF7DA9)"},{"matrix":[1.0,0.0,0.0,0.0,0.0,1.0,0.0,0.0,0.0,0.0,1.0,0.0,0.0,2.243029238003583e-16,3.663144736205197,1.0],"mesh":43,"name":"Figure_skin(7BFC6970-3681-42A5-A381-EA870A2F50D7)"},{"matrix":[1.0,0.0,0.0,0.0,0.0,1.0,0.0,0.0,0.0,0.0,1.0,0.0,0.0,2.243029238003583e-16,3.663144736205197,1.0],"mesh":44,"name":"Figure_skin(4B3E723B-F48B-4C6E-B8C2-F6DBBC40CBC2)"},{"children":[47,48,49,50,51,52,53,54,55,56,57,58,59,60,61,62,63,64,65,66,67,68,69,70,71],"name":"Figure_skin"},{"mesh":45,"name":"Question(9AEA77B5-D598-4B80-8109-7D64AA73A269)"},{"children":[73],"name":"Question"},{"matrix":[1.178175626955805,0.0,0.0,0.0,0.0,1.178175626955805,-1.35214996370566e-32,0.0,0.0,1.35214996370566e-32,1.178175626955805,0.0,-24.537461251208697,-4.797654844520956,-20.45792149501841,0.9999999999999987],"mesh":46,"name":"Figure_pants(6FA7F6F8-133B-42C6-9920-982F392C5B2C)"},{"matrix":[1.178175626955805,0.0,0.0,0.0,0.0,1.178175626955805,-1.3521499637056623e-32,0.0,0.0,1.3521499637056623e-32,1.178175626955805,0.0,-24.537461251208647,-4.797654844520921,-20.457921495018393,0.9999999999999987],"mesh":47,"name":"Figure_pants(765C8EB2-9DDE-4AAF-BB0E-C045CFE95BEF)"},{"matrix":[1.1781756269558052,0.0,0.0,0.0,0.0,1.1781756269558052,-1.3521499637056617e-32,0.0,0.0,1.3521499637056617e-32,1.1781756269558052,0.0,-24.5374612512087,-5.755916998629823,-20.24642283489938,0.9999999999999992],"mesh":48,"name":"Figure_pants(D4C04F4D-3C60-4C29-9060-4E226594B89E)"},{"matrix":[1.0,0.0,0.0,0.0,0.0,1.0,0.0,0.0,0.0,0.0,1.0,0.0,0.0,-1.1453650130746256e-15,-0.7835853314152956,1.0],"mesh":49,"name":"Figure_pants(7E484C1C-8014-4596-A835-4BD95F0B0E0E)"},{"mesh":50,"name":"Figure_pants(B7D72E77-65BC-4DF3-880D-00FAB6516147)"},{"matrix":[1.0,0.0,0.0,0.0,0.0,1.0,0.0,0.0,0.0,0.0,1.0,0.0,0.0,-4.226691775021244e-17,-0.6902711505005357,1.0],"mesh":51,"name":"Figure_pants(AFF36E6B-60D6-4AF1-813D-F4DE57A24EEA)"},{"mesh":52,"name":"Figure_pants(A68195B3-0263-4BF5-804B-A227971D4A28)"},{"matrix":[1.0,0.0,0.0,0.0,0.0,1.0,0.0,0.0,0.0,0.0,1.0,0.0,0.0,2.243029238003583e-16,3.663144736205197,1.0],"mesh":53,"name":"Figure_pants(83E94D6E-90E7-426F-927B-654FC6DA3C8D)"},{"children":[75,76,77,78,79,80,81,82],"name":"Figure_pants"},{"matrix":[1.0,0.0,0.0,0.0,0.0,1.0,0.0,0.0,0.0,0.0,1.0,0.0,0.0,-1.1453650130746256e-15,-0.7835853314152956,1.0],"mesh":54,"name":"Figure_shirts(4F4F0A43-AE79-492C-BF90-D848386C1DFA)"},{"matrix":[1.0,0.0,0.0,0.0,0.0,1.0,0.0,0.0,0.0,0.0,1.0,0.0,0.0,-1.1453650130746256e-15,-0.7835853314152956,1.0],"mesh":55,"name":"Figure_shirts(B40CB06F-603F-447C-9668-29FC4B0DA931)"},{"mesh":56,"name":"Figure_shirts(2361BF60-0CF9-4119-AE58-6C3C4B77D339)"},{"matrix":[1.0,0.0,0.0,0.0,0.0,1.0,0.0,0.0,0.0,0.0,1.0,0.0,0.0,-4.226691775021244e-17,-0.6902711505005357,1.0],"mesh":57,"name":"Figure_shirts(27F74743-A894-4B5A-B5BF-5A2E2BFE8D46)"},{"mesh":58,"name":"Figure_shirts(9647B1E1-52E5-4A8D-AE9F-4E9D6959ADBF)"},{"matrix":[1.0,0.0,0.0,0.0,0.0,1.0,0.0,0.0,0.0,0.0,1.0,0.0,0.0,2.243029238003583e-16,3.663144736205197,1.0],"mesh":59,"name":"Figure_shirts(49BD3AB6-16E7-4CB4-9DB5-8840EA0ABB35)"},{"children":[84,85,86,87,88,89],"name":"Figure_shirts"},{"matrix":[1.178175626955805,0.0,0.0,0.0,0.0,1.178175626955805,-1.3521499637056593e-32,0.0,0.0,1.3521499637056593e-32,1.178175626955805,0.0,-24.537461251208683,-5.75591699862981,-20.246422834899356,0.9999999999999987],"mesh":60,"name":"Figurwe_shoes(8BA3D33F-60B1-4225-B20B-692A9809363A)"},{"matrix":[1.0,0.0,0.0,0.0,0.0,1.0,0.0,0.0,0.0,0.0,1.0,0.0,0.0,-1.1453650130746256e-15,-0.7835853314152956,1.0],"mesh":61,"name":"Figurwe_shoes(4EABE7C6-5649-4BD7-95A6-AA7509E1863A)"},{"matrix":[1.0,0.0,0.0,0.0,0.0,1.0,0.0,0.0,0.0,0.0,1.0,0.0,0.0,-1.1453650130746256e-15,-0.7835853314152956,1.0],"mesh":62,"name":"Figurwe_shoes(905EB6F9-EA32-4712-A5B8-77BDC4528A78)"},{"mesh":63,"name":"Figurwe_shoes(533D81BE-393F-46DA-B344-0735B1078B68)"},{"matrix":[1.0,0.0,0.0,0.0,0.0,1.0,0.0,0.0,0.0,0.0,1.0,0.0,0.0,-4.226691775021244e-17,-0.6902711505005357,1.0],"mesh":64,"name":"Figurwe_shoes(1CD7FBDC-3CEB-4CE4-9B1D-D4FB2E9021C9)"},{"mesh":65,"name":"Figurwe_shoes(B83A442B-5EE7-496A-A5BE-86A917C3254D)"},{"mesh":66,"name":"Figurwe_shoes(0E37556F-A508-41CC-AF78-D182946B2B6A)"},{"children":[91,92,93,94,95,96,97],"name":"Figurwe_shoes"},{"matrix":[1.178175626955805,0.0,0.0,0.0,0.0,1.178175626955805,-1.3521499637056623e-32,0.0,0.0,1.3521499637056623e-32,1.178175626955805,0.0,-24.537461251208647,-4.797654844520921,-20.457921495018393,0.9999999999999987],"mesh":67,"name":"Figure_hair(6E8D12E7-E770-41F9-BF84-9BCA73272D94)"},{"matrix":[1.0,0.0,0.0,0.0,0.0,1.0,0.0,0.0,0.0,0.0,1.0,0.0,0.0,-1.1453650130746256e-15,-0.7835853314152956,1.0],"mesh":68,"name":"Figure_hair(26812406-4DAE-4087-827B-578D425FB00C)"},{"mesh":69,"name":"Figure_hair(3BC91998-B3D2-43B4-9A62-5DA916A4D0DF)"},{"matrix":[1.0,0.0,0.0,0.0,0.0,1.0,0.0,0.0,0.0,0.0,1.0,0.0,0.0,-4.226691775021244e-17,-0.6902711505005357,1.0],"mesh":70,"name":"Figure_hair(3C0604A7-1644-4951-BAEB-A1E3AC1E4A40)"},{"mesh":71,"name":"Figure_hair(F5D9CE69-2933-469E-A5BD-03B1DE52E003)"},{"matrix":[1.0,0.0,0.0,0.0,0.0,1.0,0.0,0.0,0.0,0.0,1.0,0.0,0.0,2.243029238003583e-16,3.663144736205197,1.0],"mesh":72,"name":"Figure_hair(74E7E967-6619-4C62-A5B1-531F569F94E4)"},{"matrix":[1.0,0.0,0.0,0.0,0.0,1.0,0.0,0.0,0.0,0.0,1.0,0.0,0.0,1.3456775550926847e-15,3.663144736205197,1.0],"mesh":73,"name":"Figure_hair(2F7F8280-D3B4-4A55-85B9-A510F96CAD3B)"},{"children":[99,100,101,102,103,104,105],"name":"Figure_hair"},{"children":[30,32,35,37,39,41,46,72,74,83,90,98,106],"matrix":[1.0,0.0,0.0,0.0,0.0,6.123233995736766e-17,-1.0,0.0,0.0,1.0,6.123233995736766e-17,0.0,-95.0,-97.72699737548828,62.50204849243164,1.0],"name":"critical_thinking_diagram"},{"mesh":74,"name":"Figure_skin(87247646-2DBB-4C4B-A2B7-9BFC0C9A5C3F)"},{"mesh":75,"name":"Figure_skin(BF5A901D-CB28-41DA-91AF-D93BF555AEC5)"},{"mesh":76,"name":"Figure_skin(7FB5B065-D238-4A8C-84AA-B3B8EE37ED03)"},{"mesh":77,"name":"Figure_skin(C25F0671-9928-45B3-97FC-69AB55A357AB)"},{"mesh":78,"name":"Figure_skin(FB24B4CF-1FD2-43B3-BB7A-94EA3D7A4C9A)"},{"mesh":79,"name":"Figure_skin(6E69D4B0-08CF-4B9C-B2C6-4AE1D33F5136)"},{"children":[108,109,110,111,112,113],"name":"Figure_skin"},{"mesh":80,"name":"Figure_pants(8165CC5C-D680-445E-B149-6847DE2205DE)"},{"mesh":81,"name":"Figure_pants(835D64E0-EBB1-42E9-94EB-502A5ED41F54)"},{"children":[115,116],"name":"Figure_pants"},{"mesh":82,"name":"Figure_shirts(A37EB220-E730-4BAB-8B05-E0CAE69D7B5A)"},{"children":[118],"name":"Figure_shirts"},{"mesh":83,"name":"Figurwe_shoes(DF590D39-8FB8-4199-BE13-0578281540A7)"},{"mesh":84,"name":"Figurwe_shoes(3F41B6AD-195F-466B-9325-95D708239F18)"},{"children":[120,121],"name":"Figurwe_shoes"},{"mesh":85,"name":"Figure_hair(9A5578D5-A33B-4CF7-B98F-96D95897189B)"},{"children":[123],"name":"Figure_hair"},{"children":[114,117,119,122,124],"matrix":[0.9523809517051618,0.0,0.0,0.0,0.0,5.831651420373193e-17,-0.9523809517051618,0.0,0.0,0.9523809517051618,5.831651420373193e-17,0.0,-87.92619429747744,-92.93817623384489,60.21981188930759,0.9999999999999992],"name":"slide"},{"children":[107,125],"name":"Default"},{"children":[126],"matrix":[0.001,0.0,0.0,0.0,0.0,0.001,0.0,0.0,0.0,0.0,0.001,0.0,0.0,0.0,0.0,1.0],"name":"lux_root"}],"scenes":[{"nodes":[0,1,2,3,4,5,6,7,8,9,10,11,12,13,14,15,16,17,18,19,127]}]}   