<?xml version="1.0" encoding="UTF-8"?>
<svg id="Layer_2" data-name="Layer 2" xmlns="http://www.w3.org/2000/svg" viewBox="0 0 43.29 75.3">
  <defs>
    <style>
      .cls-1 {
        stroke-width: .06px;
      }

      .cls-1, .cls-2, .cls-3 {
        fill: none;
        stroke: #0c0c0c;
        stroke-linecap: round;
        stroke-linejoin: round;
      }

      .cls-2 {
        stroke-width: .05px;
      }

      .cls-3 {
        stroke-width: .04px;
      }

      .cls-4 {
        fill: #242424;
      }

      .cls-4, .cls-5, .cls-6, .cls-7 {
        fill-rule: evenodd;
        stroke-width: 0px;
      }

      .cls-5 {
        fill: #626262;
      }

      .cls-6 {
        fill: #c7c7c7;
      }

      .cls-7 {
        fill: #fff;
      }
    </style>
  </defs>
  <g id="New_Fill_1_Pen_No__100" data-name="New_Fill 1_Pen_No__100">
    <g id="HATCH">
      <polygon class="cls-7" points="16.12 11.71 15.84 13.9 15.77 18.27 16.01 22.29 16.5 24.33 16.98 26.45 17.09 29.08 17.67 27.72 19.21 24.11 20.01 23.01 21.81 22.57 21.68 22.17 20.89 21.15 20.11 20.03 20.05 19.85 19.35 18.88 19.29 17.75 19.64 16.91 19.58 16.15 19.27 13.1 21.77 9.6 24.54 5.89 26.9 4.5 28.08 3.08 28.53 2.42 28.01 2 26.66 3.15 27.42 .96 26.9 .83 25.93 2.28 26.24 .27 25.89 .1 25.51 .58 25.51 .1 25.1 .03 24.54 1.69 24.26 1.76 23.5 .03 23.15 .06 23.36 2.04 23.43 3.08 23.29 3.7 21.49 5.68 18.99 8.28 16.12 11.71"/>
    </g>
    <g id="HATCH-2" data-name="HATCH">
      <polygon class="cls-7" points="27.35 28.76 26.98 30.44 27.38 32.11 29.12 32.98 30.61 32.13 30.68 31.93 30.89 30.61 31.82 30.33 36.16 29.33 41.25 26.73 43.26 25.3 42.99 23.29 42.5 19.17 41.08 14.59 40.94 13.31 40.56 11.33 39.8 8.97 39.24 8.97 39.07 9.91 37.96 7.93 37.27 8.11 36.89 7.27 36.61 7.38 36.54 7.79 36.19 7.45 35.81 7.55 37.51 10.98 38.48 12.93 39.21 15.8 39.66 19.58 39.42 21.66 39.31 23.74 38.65 23.74 37.82 24.02 36.12 24.85 34.11 25.1 31.61 24.99 29.67 25.17 28.4 26.03 27.82 26.88 27.35 28.76"/>
    </g>
    <g id="HATCH-3" data-name="HATCH">
      <polygon class="cls-7" points="27 24.54 27.38 21.73 28.91 20.59 29.22 19.38 29.36 17.99 29.12 17.64 29.15 16.77 28.56 15.7 28.06 14.79 28.51 16.57 28.57 17.61 28.31 18.5 28.31 19.17 28.08 19.66 27.64 19.86 26.54 20.9 26.23 22.26 25.21 22.87 23.65 23.24 22.32 22.94 21.94 22.94 21.26 23.73 21.2 24.69 22.04 26.28 23.31 26.65 25.68 25.7 27.45 25.86 27 24.54"/>
    </g>
    <g id="HATCH-4" data-name="HATCH">
      <polygon class="cls-7" points="16.29 55.5 18.13 52.7 18.13 51.76 16.41 51.13 13.67 50.3 12.34 49.3 11.3 48.29 12.68 52.45 12.41 52.94 9.11 55.82 7.27 57.93 4.26 62.82 2.52 65.91 1.66 67.22 2.42 67.72 3.1 68.39 4.37 68.2 5.19 67.6 5.96 66.36 5.78 65.35 7.48 63.72 10.43 61.92 12.09 60.39 14.28 57.1 16.29 55.5"/>
    </g>
    <g id="HATCH-5" data-name="HATCH">
      <polygon class="cls-7" points="25.82 54.29 28.94 54.57 29.64 54.78 30.09 55.5 29.33 59.25 29.19 62.23 29.36 63.17 29.99 65.73 30.26 68.65 30.19 70.97 30.83 71.7 32.16 72.36 33 72.19 33.69 71.72 34.21 70.77 34.59 70.25 34.13 69.44 33.52 68.78 33.28 68.26 33.59 66.25 34.8 60.15 34.74 54.46 34.74 52.25 34.39 51.34 33.38 50.41 30.57 48.33 30 47.87 30.1 49.46 29.44 51.25 27.11 53.13 24.57 53.33 23.27 53.41 25.82 54.29"/>
    </g>
  </g>
  <g id="New_Fill_2_Pen_No__20" data-name="New_Fill 2_Pen_No__20">
    <g id="HATCH-6" data-name="HATCH">
      <polygon class="cls-4" points="28.31 18.5 28.57 17.61 28.51 16.57 28.06 14.79 27.87 14.45 27.04 13.97 26.07 13.65 24.82 13.79 23.81 14.1 23.05 13.79 21.77 14.14 20.45 14.63 19.96 15.56 19.58 16.15 19.64 16.91 19.29 17.75 19.35 18.88 20.05 19.85 20.79 19.93 21.11 20.89 21.98 21.33 22.38 21.83 22.32 22.94 23.65 23.24 25.21 22.87 26.23 22.26 26.54 20.9 27.64 19.86 28.08 19.66 28.31 19.17 28.31 18.5"/>
    </g>
    <g id="HATCH-7" data-name="HATCH">
      <polygon class="cls-4" points="29.44 51.25 30.1 49.46 30 47.87 29.43 47.43 28.22 46.28 27 44.89 26.88 44.63 27.15 46.09 27.06 47.05 25.48 48.09 23.74 48.67 20.07 47.8 16.16 46.3 12 44.51 11.13 43.04 10.78 43.99 10.74 46.56 11.3 48.29 12.34 49.3 13.67 50.3 16.41 51.13 18.13 51.76 21.39 52.63 23.02 53.32 23.27 53.41 24.57 53.33 27.11 53.13 29.44 51.25"/>
    </g>
  </g>
  <g id="New_Fill_4_Pen_No__60" data-name="New_Fill 4_Pen_No__60">
    <g id="HATCH-8" data-name="HATCH">
      <polygon class="cls-5" points="28.04 40.7 28.98 37.06 29.74 34.91 30.61 32.13 29.12 32.98 27.38 32.11 26.98 30.44 27.35 28.76 27.82 26.88 28.4 26.03 28.29 26.1 27.45 25.86 25.68 25.7 23.31 26.65 22.04 26.28 21.2 24.69 21.26 23.73 21.94 22.94 21.81 22.57 20.01 23.01 19.21 24.11 17.67 27.72 17.09 29.08 17.71 30.54 17.19 33.83 16.77 34.94 15.53 35.81 14.49 37.72 12.68 39.59 11.78 41.29 11.13 43.04 12 44.51 16.16 46.3 20.07 47.8 23.74 48.67 25.48 48.09 27.06 47.05 27.15 46.09 26.88 44.63 26.55 43.96 27.04 42.43 28.04 40.7"/>
    </g>
  </g>
  <g id="New_Fill_3_Pen_No__80" data-name="New_Fill 3_Pen_No__80">
    <g id="HATCH-9" data-name="HATCH">
      <polygon class="cls-6" points="37.54 72.39 38.58 71 38.93 69.79 38.41 68.92 37.47 68.68 36.33 69.06 35.5 69.23 35.01 68.99 33.76 68.37 33.28 68.26 33.52 68.78 34.13 69.44 34.59 70.25 34.21 70.77 33.69 71.72 33 72.19 32.16 72.36 30.83 71.7 30.19 70.97 29.4 71.35 29.36 72.88 29.47 74.4 30.4 75.27 31.58 74.92 33.83 73.88 35.91 73.19 37.54 72.39"/>
    </g>
    <g id="HATCH-10" data-name="HATCH">
      <polygon class="cls-6" points=".41 67.64 .03 70.73 .72 71.42 2.28 71.56 4.12 70.8 6.34 70.34 7.93 69.86 9.04 68.75 9.56 67.43 9.32 66.57 7.73 66.29 5.96 66.36 5.19 67.6 4.37 68.2 3.1 68.39 2.42 67.72 1.66 67.22 .41 67.64"/>
    </g>
  </g>
  <g id="New_Outside_Boundaries_Pen_No__121" data-name="New_Outside Boundaries_Pen_No__121">
    <g id="LWPOLYLINE">
      <polygon class="cls-1" points="23.43 3.08 23.36 2.04 23.15 .06 23.5 .03 24.26 1.76 24.54 1.69 25.1 .03 25.51 .1 25.51 .58 25.89 .1 26.24 .27 25.93 2.28 26.9 .83 27.42 .96 26.66 3.15 28.01 2 28.53 2.42 28.08 3.08 26.9 4.5 24.54 5.89 21.77 9.6 19.27 13.1 19.58 16.15 19.96 15.56 20.45 14.63 21.77 14.14 23.05 13.79 23.81 14.1 24.82 13.79 26.07 13.65 27.04 13.97 27.87 14.45 28.56 15.7 29.15 16.77 29.12 17.64 29.36 17.99 29.22 19.38 28.91 20.59 27.38 21.73 27 24.54 27.45 25.86 28.29 26.1 29.67 25.17 31.61 24.99 34.11 25.1 36.12 24.85 37.82 24.02 38.65 23.74 39.31 23.74 39.42 21.66 39.66 19.58 39.21 15.8 38.48 12.93 37.51 10.98 35.81 7.55 36.19 7.45 36.54 7.79 36.61 7.38 36.89 7.27 37.27 8.11 37.96 7.93 39.07 9.91 39.24 8.97 39.8 8.97 40.56 11.33 40.94 13.31 41.08 14.59 42.5 19.17 42.99 23.29 43.26 25.3 41.25 26.73 36.16 29.33 31.82 30.33 30.89 30.61 30.68 31.93 29.74 34.91 28.98 37.06 28.04 40.7 27.04 42.43 26.55 43.96 27 44.89 28.22 46.28 29.43 47.43 30.57 48.33 33.38 50.41 34.39 51.34 34.74 52.25 34.74 54.46 34.8 60.15 33.59 66.25 33.28 68.26 33.76 68.37 35.01 68.99 35.5 69.23 36.33 69.06 37.47 68.68 38.41 68.92 38.93 69.79 38.58 71 37.54 72.39 35.91 73.19 33.83 73.88 31.58 74.92 30.4 75.27 29.47 74.4 29.36 72.88 29.4 71.35 30.19 70.97 30.26 68.65 29.99 65.73 29.36 63.17 29.19 62.23 29.33 59.25 30.09 55.5 29.64 54.78 28.94 54.57 25.82 54.29 23.02 53.32 21.39 52.63 18.13 51.76 18.13 52.7 16.29 55.5 14.28 57.1 12.09 60.39 10.43 61.92 7.48 63.72 5.78 65.35 5.96 66.36 7.73 66.29 9.32 66.57 9.56 67.43 9.04 68.75 7.93 69.86 6.34 70.34 4.12 70.8 2.28 71.56 .72 71.42 .03 70.73 .41 67.64 1.66 67.22 2.52 65.91 4.26 62.82 7.27 57.93 9.11 55.82 12.41 52.94 12.68 52.45 11.3 48.29 10.74 46.56 10.78 43.99 11.78 41.29 12.68 39.59 14.49 37.72 15.53 35.81 16.77 34.94 17.19 33.83 17.71 30.54 17.09 29.08 16.98 26.45 16.5 24.33 16.01 22.29 15.77 18.27 15.84 13.9 16.12 11.71 18.99 8.28 21.49 5.68 23.29 3.7 23.43 3.08"/>
    </g>
  </g>
  <g id="New_Boundaries_Pen_No__101">
    <g id="LWPOLYLINE-2" data-name="LWPOLYLINE">
      <polygon class="cls-2" points="20.05 19.85 20.79 19.93 21.11 20.89 21.98 21.33 22.38 21.83 22.32 22.94 21.94 22.94 21.68 22.17 20.89 21.15 20.11 20.03 20.05 19.85"/>
    </g>
  </g>
  <g id="New_Division_Lines_Pen_No__81" data-name="New_Division Lines_Pen_No__81">
    <g id="LWPOLYLINE-3" data-name="LWPOLYLINE">
      <polyline class="cls-3" points="19.58 16.15 19.64 16.91 19.29 17.75 19.35 18.88 20.05 19.85"/>
    </g>
    <g id="LWPOLYLINE-4" data-name="LWPOLYLINE">
      <polyline class="cls-3" points="28.06 14.79 28.51 16.57 28.57 17.61 28.31 18.5 28.31 19.17 28.08 19.66 27.64 19.86 26.54 20.9 26.23 22.26 25.21 22.87 23.65 23.24 22.32 22.94"/>
    </g>
    <g id="LWPOLYLINE-5" data-name="LWPOLYLINE">
      <polyline class="cls-3" points="21.94 22.94 21.26 23.73 21.2 24.69 22.04 26.28 23.31 26.65 25.68 25.7 27.45 25.86"/>
    </g>
    <g id="LWPOLYLINE-6" data-name="LWPOLYLINE">
      <polyline class="cls-3" points="28.4 26.03 27.82 26.88 27.35 28.76 26.98 30.44 27.38 32.11 29.12 32.98 30.61 32.13"/>
    </g>
    <g id="LWPOLYLINE-7" data-name="LWPOLYLINE">
      <polyline class="cls-3" points="21.81 22.57 20.01 23.01 19.21 24.11 17.67 27.72 17.09 29.08"/>
    </g>
    <g id="LWPOLYLINE-8" data-name="LWPOLYLINE">
      <polyline class="cls-3" points="11.13 43.04 12 44.51 16.16 46.3 20.07 47.8 23.74 48.67 25.48 48.09 27.06 47.05 27.15 46.09 26.88 44.63"/>
    </g>
    <g id="LWPOLYLINE-9" data-name="LWPOLYLINE">
      <polyline class="cls-3" points="30 47.87 30.1 49.46 29.44 51.25 27.11 53.13 24.57 53.33 23.27 53.41"/>
    </g>
    <g id="LWPOLYLINE-10" data-name="LWPOLYLINE">
      <polyline class="cls-3" points="18.13 51.76 16.41 51.13 13.67 50.3 12.34 49.3 11.3 48.29"/>
    </g>
    <g id="LWPOLYLINE-11" data-name="LWPOLYLINE">
      <polyline class="cls-3" points="1.66 67.22 2.42 67.72 3.1 68.39 4.37 68.2 5.19 67.6 5.96 66.36"/>
    </g>
    <g id="LWPOLYLINE-12" data-name="LWPOLYLINE">
      <polyline class="cls-3" points="33.28 68.26 33.52 68.78 34.13 69.44 34.59 70.25 34.21 70.77 33.69 71.72 33 72.19 32.16 72.36 30.83 71.7 30.19 70.97"/>
    </g>
  </g>
</svg>